<svg width="1181" height="702" viewBox="0 0 1181 702" fill="none" xmlns="http://www.w3.org/2000/svg">
<g clip-path="url(#clip0_269_2795)">
<path d="M465.277 326.291L473.074 310.824L455.781 311.805L465.277 326.291ZM466.552 279.349L468.037 279.566L468.037 279.566L466.552 279.349ZM466.012 312.777C465.751 301.508 466.449 290.409 468.037 279.566L465.068 279.132C463.456 290.14 462.747 301.407 463.013 312.847L466.012 312.777ZM468.037 279.566C477.88 212.344 521.912 154.907 583.36 127.291L582.13 124.554C519.76 152.586 475.062 210.883 465.068 279.132L468.037 279.566Z" fill="#D16014"/>
<circle cx="233.286" cy="571.128" r="20" transform="rotate(9.76029 233.286 571.128)" fill="#17301C"/>
<path d="M453.089 416.468L451.71 415.876L451.71 415.876L453.089 416.468ZM253.363 572.208L269.716 577.917L266.484 560.901L253.363 572.208ZM469.133 356.954C465.571 377.663 459.657 397.378 451.71 415.876L454.467 417.06C462.505 398.348 468.487 378.405 472.09 357.462L469.133 356.954ZM451.71 415.876C418.144 494.014 348.31 550.453 266.314 568.222L266.949 571.154C349.877 553.183 420.512 496.104 454.467 417.06L451.71 415.876Z" fill="#D16014"/>
<circle cx="264.305" cy="601.062" r="19.5" transform="rotate(2.10524 264.305 601.062)" fill="#17301C" stroke="#F5FF67"/>
<path d="M461.564 418.768L461.082 418.634L461.082 418.634L461.564 418.768ZM284.365 599.726L290 600.982L288.27 595.474L284.365 599.726ZM470.537 357.684C469.762 378.762 466.515 399.167 461.082 418.634L462.046 418.903C467.499 399.361 470.759 378.878 471.537 357.721L470.537 357.684ZM461.082 418.634C437.322 503.781 371.762 570.975 288.514 597.899L288.821 598.851C372.384 571.825 438.193 504.378 462.046 418.903L461.082 418.634Z" fill="#D16014"/>
<circle cx="300.008" cy="626.555" r="20" transform="rotate(-5.79686 300.008 626.555)" fill="#F5FF67"/>
<path d="M470.351 419.147L469.855 419.08L469.855 419.08L470.351 419.147ZM319.712 622.747L325.467 623.217L322.996 617.999L319.712 622.747ZM470.841 357.409C472.971 378.393 472.56 399.051 469.855 419.08L470.846 419.214C473.561 399.108 473.974 378.371 471.836 357.308L470.841 357.409ZM469.855 419.08C458.026 506.685 402.327 582.254 323.571 620.368L324.006 621.268C403.06 583.011 458.972 507.156 470.846 419.214L469.855 419.08Z" fill="#D16014"/>
<circle cx="338.6" cy="646.364" r="19.5" transform="rotate(-13.8504 338.6 646.364)" fill="#17301C" stroke="#F5FF67"/>
<path d="M478.225 417.414L477.725 417.417L477.725 417.417L478.225 417.414ZM357.597 640.111L363.36 639.77L360.183 634.949L357.597 640.111ZM470.061 356.216C475.11 376.695 477.597 397.207 477.725 417.417L478.725 417.41C478.597 397.123 476.1 376.532 471.032 355.977L470.061 356.216ZM477.725 417.417C478.286 505.816 433.724 588.443 361.084 637.214L361.641 638.044C434.556 589.089 479.289 506.149 478.725 417.41L477.725 417.417Z" fill="#D16014"/>
<circle cx="379.01" cy="661.366" r="20" transform="rotate(-21.5055 379.01 661.366)" fill="#F5FF67"/>
<path d="M486.912 416.128L486.417 416.198L486.417 416.198L486.912 416.128ZM397.024 652.909L402.69 651.803L398.899 647.449L397.024 652.909ZM470.668 356.563C478.401 376.187 483.598 396.185 486.417 416.198L487.407 416.058C484.577 395.969 479.36 375.894 471.599 356.197L470.668 356.563ZM486.417 416.198C498.748 503.734 465.589 591.561 400.094 649.574L400.757 650.322C466.5 592.09 499.786 503.932 487.407 416.058L486.417 416.198Z" fill="#D16014"/>
<circle cx="421.934" cy="670.425" r="20" transform="rotate(-29.4076 421.934 670.425)" fill="#17301C"/>
<path d="M495.116 412.957L494.635 413.094L494.635 413.094L495.116 412.957ZM438.634 659.848L444.094 657.974L439.741 654.182L438.634 659.848ZM470.837 356.191C481.194 374.566 489.091 393.659 494.635 413.094L495.596 412.82C490.031 393.31 482.104 374.144 471.708 355.7L470.837 356.191ZM494.635 413.094C518.884 498.104 498.114 589.656 441.216 656.122L441.976 656.772C499.089 590.055 519.939 498.157 495.596 412.82L494.635 413.094Z" fill="#D16014"/>
<circle cx="470.24" cy="355.967" r="29.5" transform="rotate(-17.4152 470.24 355.967)" fill="#17301C" stroke="#F5FF67"/>
<path d="M401.498 184.096L407.014 182.391L402.779 178.467L401.498 184.096ZM436.881 153.223L437.163 153.636L436.881 153.223ZM404.918 181.141C414.853 170.654 425.675 161.482 437.163 153.636L436.599 152.81C425.053 160.696 414.176 169.914 404.192 180.453L404.918 181.141ZM437.163 153.636C493.552 115.124 565.989 108.549 628.249 135.153L628.642 134.234C566.072 107.497 493.274 114.103 436.599 152.81L437.163 153.636Z" fill="#D16014"/>
<circle cx="63.594" cy="180.89" r="20" transform="rotate(57.0981 63.594 180.89)" fill="#17301C"/>
<path d="M326.925 236.244L326.759 235.773L326.759 235.773L326.925 236.244ZM77.0507 194.915L79.2543 200.252L82.774 195.675L77.0507 194.915ZM382.106 208.551C364.396 220.009 345.82 229.055 326.759 235.773L327.091 236.716C346.226 229.972 364.873 220.891 382.649 209.391L382.106 208.551ZM326.759 235.773C243.385 265.158 150.737 250.007 80.927 197.265L80.3242 198.063C150.399 251.004 243.397 266.214 327.091 236.716L326.759 235.773Z" fill="#D16014"/>
<circle cx="62.6023" cy="223.987" r="20" transform="rotate(49.4431 62.6023 223.987)" fill="#17301C"/>
<path d="M330.977 244.035L330.749 243.59L330.749 243.59L330.977 244.035ZM77.8243 236.36L80.7191 241.355L83.5978 236.351L77.8243 236.36ZM381.977 209.239C365.952 222.953 348.746 234.393 330.749 243.59L331.205 244.481C349.27 235.248 366.542 223.764 382.627 209.998L381.977 209.239ZM330.749 243.59C252.033 283.82 158.193 281.145 81.9792 238.173L81.488 239.044C157.99 282.179 252.185 284.865 331.205 244.481L330.749 243.59Z" fill="#D16014"/>
<circle cx="68.0505" cy="267.514" r="20" transform="rotate(41.541 68.0505 267.514)" fill="#17301C"/>
<path d="M336.654 250.754L336.367 250.344L336.367 250.344L336.654 250.754ZM84.8495 277.955L88.4036 282.505L90.5669 277.152L84.8495 277.955ZM382.385 209.276C368.398 225.063 352.928 238.76 336.367 250.344L336.94 251.163C353.565 239.535 369.094 225.785 383.134 209.939L382.385 209.276ZM336.367 250.344C263.929 301.013 170.612 311.265 89.2142 279.179L88.8474 280.11C170.553 312.317 264.223 302.028 336.94 251.163L336.367 250.344Z" fill="#D16014"/>
<circle cx="79.6392" cy="309.318" r="20" transform="rotate(33.4874 79.6392 309.318)" fill="#17301C"/>
<path d="M343.264 255.37L342.923 255.004L342.923 255.004L343.264 255.37ZM97.7545 317.58L101.911 321.587L103.303 315.984L97.7545 317.58ZM382.734 207.894C371.096 225.485 357.698 241.214 342.923 255.004L343.605 255.735C358.437 241.892 371.887 226.103 383.568 208.446L382.734 207.894ZM342.923 255.004C278.298 315.322 187.338 338.547 102.248 318.181L102.015 319.154C187.427 339.596 278.732 316.286 343.605 255.735L342.923 255.004Z" fill="#D16014"/>
<circle cx="95.9918" cy="349.202" r="20" transform="rotate(25.8323 95.9918 349.202)" fill="#17301C"/>
<path d="M350.096 260.886L349.709 260.569L349.709 260.569L350.096 260.886ZM115.061 355.246L119.715 358.664L120.348 352.925L115.061 355.246ZM382.89 208.576C373.699 227.56 362.515 244.934 349.709 260.569L350.483 261.203C363.338 245.508 374.565 228.067 383.79 209.012L382.89 208.576ZM349.709 260.569C293.695 328.959 206.64 364.093 119.595 355.243L119.493 356.238C206.867 365.121 294.253 329.855 350.483 261.203L349.709 260.569Z" fill="#D16014"/>
<circle cx="118.418" cy="386.904" r="20" transform="rotate(17.9302 118.418 386.904)" fill="#17301C"/>
<path d="M357.987 264.77L357.561 264.51L357.561 264.51L357.987 264.77ZM138.157 390.547L143.236 393.292L143.074 387.521L138.157 390.547ZM383.278 208.448C376.785 228.516 368.096 247.262 357.561 264.51L358.414 265.031C368.99 247.717 377.712 228.899 384.23 208.756L383.278 208.448ZM357.561 264.51C311.481 339.95 230.082 386.719 142.647 389.921L142.683 390.92C230.449 387.707 312.157 340.762 358.414 265.031L357.561 264.51Z" fill="#D16014"/>
<circle cx="383.038" cy="207.857" r="30" transform="rotate(29.9227 383.038 207.857)" fill="#17301C"/>
<path d="M749.18 326.314L746.697 321.102L752.452 321.558L749.18 326.314ZM747.903 279.312L747.409 279.385L747.409 279.385L747.903 279.312ZM749.036 321.796C750.017 307.363 749.427 293.169 747.409 279.385L748.398 279.24C750.427 293.094 751.02 307.359 750.034 321.863L749.036 321.796ZM747.409 279.385C737.503 211.733 693.191 153.935 631.356 126.144L631.766 125.232C693.909 153.161 738.442 211.246 748.398 279.24L747.409 279.385Z" fill="#D16014"/>
<circle cx="20.0258" cy="20.0258" r="20.0258" transform="matrix(-0.985526 0.169526 0.169526 0.985526 997.81 548.338)" fill="#F5FF67"/>
<path d="M761.385 416.608L760.925 416.805L760.925 416.805L761.385 416.608ZM961.368 572.549L955.95 574.546L956.93 568.856L961.368 572.549ZM744.332 357.187C747.912 378.001 753.857 397.817 761.844 416.411L760.925 416.805C752.907 398.14 746.94 378.248 743.346 357.356L744.332 357.187ZM761.844 416.411C796.784 497.747 870.817 555.688 957.032 571.295L956.854 572.279C870.314 556.613 796 498.455 760.925 416.805L761.844 416.411Z" fill="#D16014"/>
<circle cx="20.0258" cy="20.0258" r="20.0258" transform="matrix(-0.999325 0.0367352 0.0367352 0.999325 969.689 580.694)" fill="#17301C"/>
<path d="M752.9 418.913L752.418 419.048L752.418 419.048L752.9 418.913ZM930.328 600.104L924.693 601.361L926.422 595.853L930.328 600.104ZM743.914 357.75C744.69 378.856 747.942 399.287 753.381 418.779L752.418 419.048C746.958 399.481 743.694 378.971 742.915 357.787L743.914 357.75ZM753.381 418.779C777.175 504.045 842.831 571.331 926.198 598.284L925.891 599.236C842.208 572.18 776.304 504.642 752.418 419.048L753.381 418.779Z" fill="#D16014"/>
<circle cx="20.0258" cy="20.0258" r="20.0258" transform="matrix(-0.994886 -0.101002 -0.101002 0.994886 936.606 609.065)" fill="#17301C"/>
<path d="M744.098 419.291L743.603 419.358L743.603 419.358L744.098 419.291ZM894.931 623.155L889.177 623.625L891.647 618.406L894.931 623.155ZM743.607 357.473C741.474 378.485 741.886 399.17 744.594 419.224L743.603 419.358C740.884 399.226 740.471 378.463 742.612 357.372L743.607 357.473ZM744.594 419.224C756.439 506.952 812.22 582.625 891.091 620.784L890.655 621.684C811.487 583.381 755.494 507.423 743.603 419.358L744.594 419.224Z" fill="#D16014"/>
<circle cx="20.0258" cy="20.0258" r="20.0258" transform="matrix(-0.970924 -0.239388 -0.239388 0.970924 900.254 632.153)" fill="#17301C"/>
<path d="M736.215 417.556L735.715 417.553L736.215 417.556ZM856.999 640.541L851.236 640.2L854.412 635.379L856.999 640.541ZM744.389 356.28C739.333 376.785 736.843 397.324 736.715 417.56L735.715 417.553C735.844 397.239 738.343 376.623 743.418 356.04L744.389 356.28ZM736.715 417.56C736.153 506.082 780.782 588.823 853.529 637.655L852.972 638.486C779.951 589.469 735.151 506.415 735.715 417.553L736.715 417.56Z" fill="#D16014"/>
<circle cx="20.0258" cy="20.0258" r="20.0258" transform="matrix(-0.930382 -0.36659 -0.36659 0.930382 861.53 650.534)" fill="#F5FF67"/>
<path d="M727.519 416.269L727.024 416.2L727.024 416.2L727.519 416.269ZM817.523 653.356L811.857 652.251L815.647 647.896L817.523 653.356ZM743.783 356.627C736.041 376.277 730.837 396.301 728.014 416.339L727.024 416.2C729.858 396.084 735.081 375.984 742.852 356.261L743.783 356.627ZM728.014 416.339C715.665 503.997 748.875 591.947 814.468 650.034L813.805 650.783C747.965 592.476 714.628 504.195 727.024 416.2L728.014 416.339Z" fill="#D16014"/>
<circle cx="20.0258" cy="20.0258" r="20.0258" transform="matrix(-0.871149 -0.491019 -0.491019 0.871149 819.854 663.282)" fill="#17301C"/>
<path d="M719.304 413.094L718.824 412.957L718.824 412.957L719.304 413.094ZM775.859 660.303L770.398 658.429L774.752 654.637L775.859 660.303ZM743.614 356.254C733.243 374.653 725.336 393.771 719.785 413.231L718.824 412.957C724.396 393.422 732.333 374.231 742.742 355.763L743.614 356.254ZM719.785 413.231C695.502 498.359 716.306 590.039 773.29 656.593L772.531 657.243C715.331 590.438 694.447 498.412 718.824 412.957L719.785 413.231Z" fill="#D16014"/>
<circle cx="30.0387" cy="30.0387" r="30.0387" transform="matrix(-0.954161 -0.299293 -0.299293 0.954161 781.864 336.358)" fill="#17301C"/>
<path d="M813.04 183.937L807.525 182.232L811.76 178.308L813.04 183.937ZM777.611 153.024L777.329 153.437L777.329 153.437L777.611 153.024ZM809.62 180.981C799.671 170.479 788.834 161.294 777.329 153.437L777.893 152.611C789.456 160.508 800.348 169.739 810.346 180.293L809.62 180.981ZM777.329 153.437C720.868 114.876 648.337 108.292 585.996 134.93L585.603 134.011C648.254 107.24 721.146 113.855 777.893 152.611L777.329 153.437Z" fill="#D16014"/>
<circle cx="20.0258" cy="20.0258" r="19.5258" transform="matrix(-0.543202 0.839602 0.839602 0.543202 1145.44 153.034)" fill="#17301C" stroke="#D16014"/>
<path d="M887.711 236.152L887.544 236.624L887.544 236.624L887.711 236.152ZM1137.91 194.77L1135.7 200.106L1132.18 195.53L1137.91 194.77ZM832.458 208.424C850.19 219.896 868.791 228.954 887.877 235.681L887.544 236.624C868.385 229.871 849.714 220.779 831.915 209.264L832.458 208.424ZM887.877 235.681C971.367 265.107 1064.14 249.93 1134.05 197.108L1134.65 197.906C1064.48 250.928 971.355 266.163 887.544 236.624L887.877 235.681Z" fill="#D16014"/>
<circle cx="20.0258" cy="20.0258" r="20.0258" transform="matrix(-0.650204 0.75976 0.75976 0.650204 1150.18 195.647)" fill="#17301C"/>
<path d="M883.653 243.957L883.426 244.402L883.426 244.402L883.653 243.957ZM1137.13 236.271L1134.24 241.267L1131.36 236.262L1137.13 236.271ZM832.587 209.115C848.633 222.847 865.862 234.302 883.881 243.511L883.426 244.402C865.337 235.157 848.043 223.659 831.937 209.875L832.587 209.115ZM883.881 243.511C962.707 283.797 1056.68 281.114 1133 238.074L1133.49 238.945C1056.88 282.148 962.555 284.842 883.426 244.402L883.881 243.511Z" fill="#D16014"/>
<circle cx="20.0258" cy="20.0258" r="20.0258" transform="matrix(-0.748482 0.663155 0.663155 0.748482 1148.62 239.195)" fill="#17301C"/>
<path d="M877.968 250.684L877.681 251.094L877.681 251.094L877.968 250.684ZM1130.1 277.92L1126.54 282.471L1124.38 277.118L1130.1 277.92ZM832.177 209.153C846.182 224.961 861.672 238.675 878.255 250.274L877.681 251.094C861.035 239.45 845.486 225.683 831.428 209.816L832.177 209.153ZM878.255 250.274C950.794 301.014 1044.24 311.277 1125.75 279.138L1126.12 280.068C1044.3 312.328 950.499 302.029 877.681 251.094L878.255 250.274Z" fill="#D16014"/>
<circle cx="20.0258" cy="20.0258" r="19.5258" transform="matrix(-0.834008 0.551753 0.551753 0.834008 1140.97 281.572)" fill="#17301C" stroke="#F5FF67"/>
<path d="M871.351 255.304L871.01 255.669L871.351 255.304ZM1117.18 317.594L1113.02 321.602L1111.63 315.999L1117.18 317.594ZM831.83 207.767C843.482 225.381 856.898 241.13 871.692 254.938L871.01 255.669C856.159 241.808 842.692 225.999 830.995 208.319L831.83 207.767ZM871.692 254.938C936.407 315.34 1027.5 338.593 1112.7 318.191L1112.94 319.163C1027.41 339.643 935.973 316.304 871.01 255.669L871.692 254.938Z" fill="#D16014"/>
<circle cx="20.0258" cy="20.0258" r="20.0258" transform="matrix(-0.900073 0.435739 0.435739 0.900073 1128.24 322.507)" fill="#17301C"/>
<path d="M864.509 260.827L864.122 261.144L864.122 261.144L864.509 260.827ZM1099.85 355.309L1095.19 358.727L1094.56 352.988L1099.85 355.309ZM831.672 208.449C840.875 227.459 852.073 244.855 864.896 260.51L864.122 261.144C851.25 245.428 840.009 227.966 830.772 208.885L831.672 208.449ZM864.896 260.51C920.988 328.995 1008.17 364.175 1095.33 355.304L1095.44 356.299C1007.94 365.203 920.43 329.892 864.122 261.144L864.896 260.51Z" fill="#D16014"/>
<circle cx="20.0258" cy="20.0258" r="19.5258" transform="matrix(-0.951432 0.307858 0.307858 0.951432 1109.37 361.791)" fill="#17301C" stroke="#F5FF67"/>
<path d="M856.609 264.716L856.182 264.977L856.182 264.977L856.609 264.716ZM1076.72 390.655L1071.64 393.401L1071.81 387.63L1076.72 390.655ZM831.285 208.321C837.787 228.415 846.487 247.186 857.036 264.456L856.182 264.977C845.593 247.641 836.86 228.798 830.334 208.629L831.285 208.321ZM857.036 264.456C903.18 340.001 984.696 386.833 1072.25 390.03L1072.22 391.029C984.329 387.82 902.504 340.813 856.182 264.977L857.036 264.456Z" fill="#D16014"/>
<circle cx="30.0387" cy="30.0387" r="29.5387" transform="matrix(-0.8667 0.49883 0.49883 0.8667 842.575 166.711)" fill="#17301C" stroke="#F5FF67"/>
<path d="M329.622 196.152L316.822 173.982L319.025 172.71L331.825 194.88L329.622 196.152ZM333.294 194.032L332.15 192.051L335.822 189.931L336.966 191.912L333.294 194.032ZM336.319 187.741C335.916 187.086 335.468 186.353 334.975 185.542C334.486 184.716 333.985 183.859 333.473 182.973C332.961 182.086 332.465 181.215 331.983 180.36C331.496 179.495 331.059 178.695 330.671 177.958C330.043 176.744 329.835 175.7 330.045 174.827C330.251 173.945 330.904 173.125 332.005 172.366L333.021 174.125C332.644 174.454 332.441 174.805 332.411 175.18C332.384 175.54 332.495 175.944 332.742 176.393C333.204 177.259 333.677 178.119 334.158 178.975C334.634 179.821 335.118 180.668 335.608 181.518C336.094 182.359 336.592 183.211 337.102 184.074C337.607 184.928 338.132 185.794 338.678 186.675C338.975 187.168 339.292 187.483 339.63 187.621C339.968 187.758 340.357 187.749 340.797 187.594L341.813 189.354C340.577 189.944 339.534 190.109 338.682 189.85C337.834 189.576 337.046 188.873 336.319 187.741ZM343.296 188.498L342.28 186.738C342.611 186.436 342.787 186.112 342.809 185.767C342.836 185.407 342.716 184.977 342.452 184.477C342.311 184.189 342.104 183.809 341.832 183.338C341.56 182.867 341.258 182.376 340.926 181.866L343.102 180.61C343.311 180.908 343.559 181.306 343.847 181.805C344.145 182.299 344.369 182.699 344.522 183.005C345.138 184.201 345.362 185.229 345.194 186.09C345.026 186.951 344.393 187.753 343.296 188.498ZM337.207 181.279L336.279 179.672L338.842 178.192C338.551 177.645 338.249 177.1 337.934 176.554C337.614 176 337.327 175.513 337.072 175.094C336.827 174.669 336.644 174.374 336.524 174.209C336.228 173.739 335.919 173.438 335.595 173.304C335.267 173.161 334.903 173.15 334.504 173.269L333.488 171.51C334.677 170.946 335.691 170.804 336.53 171.083C337.369 171.363 338.137 172.053 338.834 173.153C338.96 173.351 339.201 173.747 339.557 174.342C339.913 174.938 340.305 175.616 340.733 176.379C341.165 177.128 341.56 177.854 341.918 178.559L337.207 181.279ZM338.411 168.908L340.711 167.58L346.659 175.323L350.252 180.362L348.395 181.434L338.411 168.908ZM349.279 182.549L351.732 181.133L348.627 174.187L344.909 165.156L347.209 163.828L354.301 181.903L350.519 184.087L349.279 182.549ZM356.427 176.131C356.024 175.477 355.576 174.744 355.083 173.933C354.594 173.106 354.093 172.25 353.581 171.363C353.069 170.476 352.573 169.605 352.091 168.75C351.604 167.886 351.167 167.085 350.779 166.349C350.151 165.134 349.943 164.091 350.153 163.218C350.359 162.336 351.012 161.515 352.113 160.756L353.129 162.516C352.752 162.845 352.549 163.196 352.519 163.571C352.492 163.931 352.603 164.335 352.85 164.784C353.312 165.65 353.785 166.51 354.266 167.365C354.742 168.211 355.226 169.059 355.716 169.909C356.202 170.75 356.7 171.601 357.21 172.464C357.715 173.318 358.24 174.185 358.786 175.065C359.083 175.559 359.4 175.874 359.738 176.011C360.076 176.149 360.465 176.14 360.905 175.984L361.921 177.744C360.685 178.335 359.642 178.5 358.79 178.24C357.942 177.966 357.154 177.263 356.427 176.131ZM363.404 176.888L362.388 175.128C362.719 174.827 362.895 174.503 362.917 174.158C362.944 173.798 362.825 173.368 362.56 172.867C362.419 172.579 362.212 172.2 361.94 171.729C361.668 171.258 361.366 170.767 361.034 170.256L363.21 169C363.419 169.298 363.668 169.697 363.956 170.196C364.253 170.689 364.477 171.089 364.63 171.395C365.246 172.591 365.47 173.62 365.302 174.48C365.134 175.341 364.501 176.144 363.404 176.888ZM357.315 169.67L356.387 168.062L358.95 166.582C358.659 166.036 358.357 165.49 358.042 164.945C357.722 164.391 357.435 163.904 357.18 163.484C356.935 163.059 356.752 162.765 356.632 162.6C356.337 162.13 356.027 161.828 355.703 161.695C355.375 161.552 355.011 161.541 354.612 161.66L353.596 159.9C354.785 159.337 355.8 159.195 356.638 159.474C357.477 159.753 358.245 160.443 358.942 161.544C359.068 161.741 359.309 162.138 359.665 162.733C360.021 163.328 360.413 164.007 360.841 164.77C361.273 165.518 361.668 166.245 362.026 166.95L357.315 169.67ZM369.266 173.263L356.466 151.093L358.669 149.821L371.469 171.991L369.266 173.263ZM381.237 166.352L369.749 146.454L368.46 147.198L367.853 146.403L368.839 143.95L370.709 142.87L383.509 165.04L381.237 166.352Z" fill="black"/>
<path d="M555.764 695.21C554.424 695.12 553.439 694.755 552.809 694.115C552.179 693.465 551.854 692.455 551.834 691.085C551.814 689.615 551.799 688.22 551.789 686.9C551.779 685.57 551.774 684.27 551.774 683C551.774 681.73 551.779 680.435 551.789 679.115C551.799 677.795 551.814 676.4 551.834 674.93C551.854 673.59 552.179 672.595 552.809 671.945C553.449 671.295 554.434 670.925 555.764 670.835L555.764 672.905C555.214 672.985 554.819 673.17 554.579 673.46C554.349 673.75 554.224 674.215 554.204 674.855C554.174 676.425 554.149 677.87 554.129 679.19C554.109 680.5 554.099 681.775 554.099 683.015C554.099 684.245 554.109 685.52 554.129 686.84C554.149 688.15 554.174 689.595 554.204 691.175C554.224 691.805 554.349 692.27 554.579 692.57C554.819 692.86 555.214 693.045 555.764 693.125L555.764 695.21ZM557.369 695.195L557.369 693.11C557.919 693.03 558.309 692.84 558.539 692.54C558.779 692.24 558.914 691.785 558.944 691.175C558.964 690.715 558.974 690.265 558.974 689.825C558.974 689.375 558.969 688.875 558.959 688.325C558.949 687.765 558.934 687.105 558.914 686.345L561.299 686.345C561.339 687.305 561.359 688.155 561.359 688.895C561.369 689.625 561.359 690.355 561.329 691.085C561.269 692.435 560.929 693.435 560.309 694.085C559.689 694.725 558.709 695.095 557.369 695.195ZM558.809 679.34C558.829 678.8 558.839 678.29 558.839 677.81C558.849 677.33 558.854 676.85 558.854 676.37C558.854 675.89 558.844 675.385 558.824 674.855C558.804 674.255 558.679 673.81 558.449 673.52C558.229 673.22 557.869 673.02 557.369 672.92L557.369 670.865C558.639 670.965 559.579 671.345 560.189 672.005C560.809 672.665 561.149 673.64 561.209 674.93C561.229 675.45 561.239 675.95 561.239 676.43C561.249 676.9 561.249 677.37 561.239 677.84C561.229 678.31 561.209 678.81 561.179 679.34L558.809 679.34ZM564.388 695L564.388 671L566.818 671L566.818 695L564.388 695ZM571.228 695L571.198 680.39C571.198 679.75 571.063 679.29 570.793 679.01C570.523 678.73 570.083 678.59 569.473 678.59C569.063 678.59 568.703 678.655 568.393 678.785L568.393 677.315C568.633 677.135 568.913 677 569.233 676.91C569.553 676.82 569.923 676.775 570.343 676.775C571.453 676.775 572.273 677.075 572.803 677.675C573.333 678.275 573.598 679.24 573.598 680.57L573.628 695L571.228 695ZM576.494 673.4L576.494 671L579.644 671L579.644 673.4L576.494 673.4ZM576.884 695L576.884 677L579.269 677L579.269 695L576.884 695ZM582.611 695L582.611 671L584.996 671L584.996 695L582.611 695ZM588.069 691.43C588.039 690.61 588.019 689.73 588.009 688.79C587.999 687.84 587.994 686.885 587.994 685.925C588.004 684.955 588.014 684.01 588.024 683.09C588.034 682.17 588.049 681.33 588.069 680.57C588.109 679.19 588.414 678.215 588.984 677.645C589.564 677.065 590.379 676.775 591.429 676.775C591.829 676.775 592.179 676.815 592.479 676.895C592.779 676.975 593.049 677.1 593.289 677.27L593.289 678.8C592.979 678.66 592.624 678.59 592.224 678.59C591.614 678.59 591.179 678.73 590.919 679.01C590.659 679.28 590.519 679.725 590.499 680.345C590.449 681.585 590.414 682.875 590.394 684.215C590.384 685.555 590.384 686.855 590.394 688.115C590.414 689.375 590.439 690.51 590.469 691.52C590.489 692.22 590.639 692.71 590.919 692.99C591.199 693.26 591.629 693.395 592.209 693.395C592.629 693.395 592.989 693.33 593.289 693.2L593.289 694.7C593.039 694.87 592.759 695 592.449 695.09C592.139 695.18 591.779 695.225 591.369 695.225C590.269 695.225 589.454 694.93 588.924 694.34C588.404 693.74 588.119 692.77 588.069 691.43ZM594.849 695L594.849 671L597.279 671L597.279 695L594.849 695ZM613.38 695L612.015 686.39L610.215 673.13L606.96 673.13L606.96 671L611.955 671L613.17 678.935L615.15 692.84L618.39 692.84L618.39 695L613.38 695ZM606.96 695L606.96 674.27L609.105 674.27L609.195 685.865L609.33 695L606.96 695ZM616.215 691.7L616.125 679.52L616.005 671L618.39 671L618.39 691.7L616.215 691.7ZM621.658 691.01C621.628 690.4 621.603 689.68 621.583 688.85C621.573 688.01 621.568 687.13 621.568 686.21C621.568 685.29 621.573 684.38 621.583 683.48C621.603 682.57 621.628 681.745 621.658 681.005C621.728 679.605 622.038 678.58 622.588 677.93C623.148 677.27 624.088 676.895 625.408 676.805L625.408 678.71C624.918 678.8 624.568 678.99 624.358 679.28C624.158 679.56 624.048 679.975 624.028 680.525C623.998 681.325 623.973 682.17 623.953 683.06C623.933 683.95 623.923 684.865 623.923 685.805C623.923 686.745 623.928 687.695 623.938 688.655C623.958 689.605 623.988 690.54 624.028 691.46C624.048 692.01 624.163 692.435 624.373 692.735C624.583 693.025 624.928 693.215 625.408 693.305L625.408 695.195C624.088 695.095 623.143 694.715 622.573 694.055C622.013 693.395 621.708 692.38 621.658 691.01ZM626.998 695.195L626.998 693.305C627.478 693.205 627.818 693.01 628.018 692.72C628.218 692.43 628.328 692.025 628.348 691.505C628.378 690.595 628.403 689.69 628.423 688.79C628.443 687.88 628.453 686.97 628.453 686.06C628.463 685.14 628.458 684.215 628.438 683.285C628.418 682.355 628.388 681.42 628.348 680.48C628.328 679.94 628.213 679.53 628.003 679.25C627.803 678.97 627.468 678.785 626.998 678.695L626.998 676.805C627.888 676.865 628.598 677.055 629.128 677.375C629.658 677.685 630.048 678.14 630.298 678.74C630.548 679.33 630.693 680.085 630.733 681.005C630.763 681.685 630.783 682.445 630.793 683.285C630.813 684.125 630.823 684.995 630.823 685.895C630.823 686.785 630.813 687.67 630.793 688.55C630.783 689.43 630.763 690.25 630.733 691.01C630.683 691.93 630.533 692.685 630.283 693.275C630.043 693.865 629.658 694.32 629.128 694.64C628.598 694.95 627.888 695.135 626.998 695.195ZM633.567 691.43C633.537 690.61 633.517 689.73 633.507 688.79C633.497 687.84 633.492 686.885 633.492 685.925C633.502 684.955 633.512 684.01 633.522 683.09C633.532 682.17 633.547 681.33 633.567 680.57C633.607 679.19 633.912 678.215 634.482 677.645C635.062 677.065 635.877 676.775 636.927 676.775C637.327 676.775 637.677 676.815 637.977 676.895C638.277 676.975 638.547 677.1 638.787 677.27L638.787 678.8C638.477 678.66 638.122 678.59 637.722 678.59C637.112 678.59 636.677 678.73 636.417 679.01C636.157 679.28 636.017 679.725 635.997 680.345C635.947 681.585 635.912 682.875 635.892 684.215C635.882 685.555 635.882 686.855 635.892 688.115C635.912 689.375 635.937 690.51 635.967 691.52C635.987 692.22 636.137 692.71 636.417 692.99C636.697 693.26 637.127 693.395 637.707 693.395C638.127 693.395 638.487 693.33 638.787 693.2L638.787 694.7C638.537 694.87 638.257 695 637.947 695.09C637.637 695.18 637.277 695.225 636.867 695.225C635.767 695.225 634.952 694.93 634.422 694.34C633.902 693.74 633.617 692.77 633.567 691.43ZM640.347 695L640.347 671L642.777 671L642.777 695L640.347 695ZM645.842 691.31C645.822 690.59 645.802 689.785 645.782 688.895C645.772 687.995 645.767 687.065 645.767 686.105C645.767 685.145 645.772 684.205 645.782 683.285C645.792 682.355 645.812 681.5 645.842 680.72C645.902 679.44 646.222 678.495 646.802 677.885C647.382 677.265 648.297 676.905 649.547 676.805L649.547 678.71C649.087 678.8 648.757 678.99 648.557 679.28C648.367 679.56 648.267 679.94 648.257 680.42C648.227 681.34 648.207 682.26 648.197 683.18C648.187 684.09 648.182 685.005 648.182 685.925C648.182 686.835 648.187 687.76 648.197 688.7C648.207 689.63 648.227 690.58 648.257 691.55C648.267 692.09 648.377 692.495 648.587 692.765C648.797 693.035 649.117 693.21 649.547 693.29L649.547 695.195C648.267 695.095 647.342 694.74 646.772 694.13C646.212 693.51 645.902 692.57 645.842 691.31ZM651.152 695.195L651.152 693.29C651.562 693.2 651.857 693.02 652.037 692.75C652.227 692.47 652.332 692.065 652.352 691.535C652.372 691.235 652.382 690.83 652.382 690.32C652.382 689.81 652.367 689.27 652.337 688.7L654.692 688.7C654.722 689.04 654.737 689.48 654.737 690.02C654.747 690.56 654.742 690.99 654.722 691.31C654.662 692.57 654.362 693.51 653.822 694.13C653.282 694.75 652.392 695.105 651.152 695.195ZM649.592 686.48L649.592 684.74L652.367 684.74C652.387 684.16 652.397 683.575 652.397 682.985C652.397 682.385 652.392 681.855 652.382 681.395C652.382 680.935 652.372 680.61 652.352 680.42C652.332 679.9 652.222 679.51 652.022 679.25C651.822 678.98 651.532 678.8 651.152 678.71L651.152 676.805C652.382 676.905 653.272 677.265 653.822 677.885C654.372 678.505 654.672 679.425 654.722 680.645C654.732 680.865 654.742 681.3 654.752 681.95C654.762 682.6 654.762 683.335 654.752 684.155C654.752 684.965 654.732 685.74 654.692 686.48L649.592 686.48ZM657.116 691.31C657.106 690.85 657.101 690.41 657.101 689.99C657.111 689.57 657.126 689.14 657.146 688.7L659.321 688.7C659.291 689.32 659.276 689.865 659.276 690.335C659.286 690.795 659.291 691.2 659.291 691.55C659.301 692.09 659.396 692.495 659.576 692.765C659.766 693.025 660.071 693.2 660.491 693.29L660.491 695.195C659.281 695.095 658.426 694.74 657.926 694.13C657.436 693.51 657.166 692.57 657.116 691.31ZM662.081 695.195L662.081 693.305C662.551 693.225 662.891 693.05 663.101 692.78C663.311 692.5 663.426 692.085 663.446 691.535C663.456 691.245 663.461 690.995 663.461 690.785C663.461 690.575 663.461 690.375 663.461 690.185C663.461 689.985 663.456 689.765 663.446 689.525C663.426 688.815 663.326 688.295 663.146 687.965C662.966 687.625 662.591 687.365 662.021 687.185L660.371 686.72C659.581 686.49 658.951 686.205 658.481 685.865C658.011 685.515 657.666 685.065 657.446 684.515C657.236 683.955 657.116 683.235 657.086 682.355C657.076 681.995 657.071 681.7 657.071 681.47C657.071 681.23 657.076 680.98 657.086 680.72C657.116 679.44 657.391 678.49 657.911 677.87C658.441 677.25 659.346 676.895 660.626 676.805L660.626 678.695C660.216 678.785 659.921 678.96 659.741 679.22C659.571 679.48 659.476 679.88 659.456 680.42C659.456 680.6 659.451 680.84 659.441 681.14C659.431 681.44 659.426 681.765 659.426 682.115C659.446 682.825 659.536 683.395 659.696 683.825C659.856 684.255 660.251 684.56 660.881 684.74L662.441 685.145C663.561 685.435 664.386 685.905 664.916 686.555C665.446 687.195 665.711 688.16 665.711 689.45C665.711 689.81 665.711 690.13 665.711 690.41C665.711 690.68 665.701 691 665.681 691.37C665.641 692.62 665.351 693.55 664.811 694.16C664.281 694.76 663.371 695.105 662.081 695.195ZM663.326 683.255C663.346 682.925 663.356 682.585 663.356 682.235C663.356 681.875 663.356 681.535 663.356 681.215C663.356 680.895 663.351 680.625 663.341 680.405C663.331 679.885 663.241 679.495 663.071 679.235C662.911 678.965 662.626 678.795 662.216 678.725L662.216 676.805C663.406 676.905 664.256 677.26 664.766 677.87C665.276 678.48 665.556 679.42 665.606 680.69C665.606 680.84 665.606 681.075 665.606 681.395C665.606 681.705 665.601 682.03 665.591 682.37C665.591 682.71 665.576 683.005 665.546 683.255L663.326 683.255Z" fill="black"/>
<path d="M13.3345 174.473L0.534509 152.302L2.73768 151.03L15.5377 173.201L13.3345 174.473ZM17.0065 172.353L15.8625 170.371L19.5344 168.251L20.6784 170.233L17.0065 172.353ZM20.0315 166.061C19.6291 165.407 19.1812 164.674 18.6881 163.862C18.1989 163.036 17.6982 162.18 17.1862 161.293C16.6742 160.406 16.1775 159.535 15.6961 158.68C15.2093 157.816 14.7718 157.015 14.3835 156.278C13.7563 155.064 13.5479 154.02 13.7583 153.148C13.9635 152.266 14.6167 151.445 15.7181 150.686L16.7341 152.446C16.3571 152.774 16.1536 153.126 16.1235 153.5C16.0974 153.86 16.2076 154.265 16.4544 154.713C16.9174 155.579 17.3896 156.44 17.871 157.295C18.3471 158.141 18.8305 158.989 19.3211 159.839C19.8065 160.679 20.3044 161.531 20.815 162.394C21.3202 163.248 21.8454 164.115 22.3904 164.995C22.6876 165.488 23.0053 165.804 23.3432 165.941C23.6812 166.079 24.0702 166.07 24.5101 165.914L25.5261 167.674C24.2903 168.264 23.2465 168.43 22.3946 168.17C21.5467 167.896 20.759 167.193 20.0315 166.061ZM27.0087 166.818L25.9927 165.058C26.3234 164.756 26.4999 164.433 26.5222 164.087C26.5484 163.727 26.4294 163.297 26.1652 162.797C26.0237 162.509 25.8169 162.13 25.5449 161.659C25.2729 161.187 24.9711 160.697 24.6393 160.186L26.8148 158.93C27.0239 159.228 27.2724 159.627 27.5604 160.125C27.8576 160.619 28.0823 161.019 28.2345 161.325C28.8511 162.521 29.0753 163.549 28.9071 164.41C28.739 165.271 28.1062 166.073 27.0087 166.818ZM20.9196 159.599L19.9916 157.992L22.5551 156.512C22.2642 155.966 21.9614 155.42 21.6468 154.875C21.3268 154.321 21.0395 153.834 20.7849 153.414C20.5396 152.989 20.357 152.694 20.2372 152.529C19.9414 152.06 19.6318 151.758 19.3084 151.625C18.9796 151.482 18.6157 151.47 18.2167 151.59L17.2007 149.83C18.3903 149.266 19.4044 149.124 20.2431 149.404C21.0819 149.683 21.8497 150.373 22.5465 151.473C22.6731 151.671 22.9143 152.068 23.2702 152.663C23.6261 153.258 24.0181 153.937 24.4462 154.7C24.8782 155.448 25.2731 156.174 25.6308 156.879L20.9196 159.599ZM22.1235 147.228L24.4236 145.9L30.3722 153.643L33.9648 158.682L32.1081 159.754L22.1235 147.228ZM32.9922 160.869L35.4448 159.453L32.3398 152.507L28.6221 143.476L30.9223 142.148L38.0143 160.224L34.2315 162.408L32.9922 160.869ZM40.1396 154.452C39.7371 153.797 39.2893 153.064 38.7961 152.253C38.3069 151.427 37.8063 150.57 37.2943 149.684C36.7823 148.797 36.2856 147.926 35.8041 147.071C35.3174 146.206 34.8798 145.406 34.4916 144.669C33.8643 143.455 33.6559 142.411 33.8664 141.538C34.0715 140.656 34.7247 139.836 35.8261 139.077L36.8421 140.836C36.4652 141.165 36.2616 141.516 36.2316 141.891C36.2054 142.251 36.3157 142.655 36.5624 143.104C37.0254 143.97 37.4976 144.83 37.979 145.686C38.4551 146.532 38.9385 147.379 39.4292 148.229C39.9145 149.07 40.4124 149.922 40.923 150.785C41.4282 151.638 41.9534 152.505 42.4984 153.385C42.7957 153.879 43.1133 154.194 43.4513 154.332C43.7893 154.469 44.1782 154.46 44.6181 154.305L45.6341 156.065C44.3983 156.655 43.3545 156.82 42.5027 156.561C41.6547 156.287 40.867 155.584 40.1396 154.452ZM47.1167 155.209L46.1007 153.449C46.4315 153.147 46.608 152.823 46.6302 152.478C46.6564 152.118 46.5374 151.688 46.2732 151.188C46.1317 150.9 45.9249 150.52 45.6529 150.049C45.3809 149.578 45.0791 149.087 44.7474 148.577L46.9228 147.321C47.1319 147.619 47.3804 148.017 47.6684 148.516C47.9656 149.01 48.1904 149.409 48.3425 149.716C48.9591 150.912 49.1833 151.94 49.0152 152.801C48.847 153.661 48.2142 154.464 47.1167 155.209ZM41.0277 147.99L40.0997 146.383L42.6631 144.903C42.3722 144.356 42.0695 143.81 41.7548 143.265C41.4348 142.711 41.1475 142.224 40.8929 141.805C40.6476 141.38 40.465 141.085 40.3452 140.92C40.0494 140.45 39.7398 140.149 39.4164 140.015C39.0876 139.872 38.7237 139.861 38.3247 139.98L37.3087 138.221C38.4983 137.657 39.5124 137.515 40.3512 137.794C41.1899 138.074 41.9577 138.764 42.6545 139.864C42.7811 140.062 43.0224 140.458 43.3783 141.053C43.7342 141.648 44.1262 142.327 44.5543 143.09C44.9863 143.838 45.3811 144.565 45.7388 145.27L41.0277 147.99ZM52.979 151.584L40.179 129.414L42.3822 128.142L55.1822 150.312L52.979 151.584ZM61.3765 141.747C61.1379 141.355 60.902 140.968 60.6688 140.585C60.4394 140.188 60.1994 139.772 59.9488 139.338C59.702 138.89 59.4312 138.399 59.1365 137.867L61.3674 136.579L63.7514 140.709C64.322 141.697 65.1668 141.998 66.2857 141.61L67.3817 143.509C66.0799 144.112 64.9454 144.281 63.9784 144.014C63.0207 143.742 62.1533 142.986 61.3765 141.747ZM51.8783 125.264L50.7503 123.31L59.6323 118.182L60.7603 120.136L51.8783 125.264ZM67.7625 140.776C68.5387 140.094 68.6474 139.237 68.0884 138.205C67.5508 137.209 67.0393 136.292 66.554 135.451C66.0687 134.61 65.5648 133.78 65.0426 132.961C64.6362 132.321 64.1561 131.927 63.6025 131.779C63.0434 131.621 62.3324 131.798 61.4694 132.308L59.5375 133.442L58.3882 131.611L58.1158 123.011L60.5822 121.587L60.7848 130.098L60.9788 129.986C62.3367 129.202 63.5118 128.955 64.5041 129.244C65.5002 129.519 66.436 130.34 67.3113 131.707C67.5751 132.121 67.8457 132.568 68.123 133.049C68.4096 133.524 68.6889 133.997 68.9609 134.468C69.2275 134.93 69.4656 135.353 69.675 135.737C69.8883 136.106 70.0524 136.412 70.1673 136.653C70.8546 137.993 71.0952 139.135 70.8891 140.079C70.6921 141.018 70.0172 141.876 68.8644 142.653L67.7625 140.776Z" fill="black"/>
<path d="M373.308 467.488L360.508 445.318L362.711 444.046L375.511 466.216L373.308 467.488ZM376.98 465.368L375.836 463.387L379.508 461.267L380.652 463.248L376.98 465.368ZM380.005 459.077C379.602 458.422 379.154 457.689 378.661 456.878C378.172 456.052 377.671 455.195 377.159 454.309C376.647 453.422 376.151 452.551 375.669 451.696C375.183 450.831 374.745 450.031 374.357 449.294C373.729 448.08 373.521 447.036 373.732 446.163C373.937 445.281 374.59 444.461 375.691 443.702L376.707 445.461C376.33 445.79 376.127 446.141 376.097 446.516C376.071 446.876 376.181 447.28 376.428 447.729C376.891 448.595 377.363 449.455 377.844 450.311C378.32 451.157 378.804 452.004 379.294 452.854C379.78 453.695 380.278 454.547 380.788 455.41C381.293 456.263 381.819 457.13 382.364 458.01C382.661 458.504 382.978 458.819 383.316 458.957C383.654 459.094 384.043 459.085 384.483 458.93L385.499 460.69C384.263 461.28 383.22 461.445 382.368 461.186C381.52 460.912 380.732 460.209 380.005 459.077ZM386.982 459.834L385.966 458.074C386.297 457.772 386.473 457.448 386.495 457.103C386.522 456.743 386.403 456.313 386.138 455.813C385.997 455.525 385.79 455.145 385.518 454.674C385.246 454.203 384.944 453.712 384.613 453.202L386.788 451.946C386.997 452.244 387.246 452.642 387.534 453.141C387.831 453.635 388.056 454.034 388.208 454.341C388.824 455.537 389.048 456.565 388.88 457.426C388.712 458.286 388.079 459.089 386.982 459.834ZM380.893 452.615L379.965 451.008L382.528 449.528C382.237 448.981 381.935 448.435 381.62 447.89C381.3 447.336 381.013 446.849 380.758 446.43C380.513 446.005 380.33 445.71 380.21 445.545C379.915 445.075 379.605 444.774 379.282 444.64C378.953 444.497 378.589 444.486 378.19 444.605L377.174 442.846C378.363 442.282 379.378 442.14 380.216 442.419C381.055 442.699 381.823 443.389 382.52 444.489C382.646 444.687 382.888 445.083 383.243 445.678C383.599 446.273 383.991 446.952 384.419 447.715C384.851 448.463 385.246 449.19 385.604 449.895L380.893 452.615ZM382.097 440.244L384.397 438.916L390.345 446.659L393.938 451.697L392.081 452.769L382.097 440.244ZM392.965 453.885L395.418 452.469L392.313 445.523L388.595 436.492L390.895 435.164L397.987 453.239L394.205 455.423L392.965 453.885ZM400.113 447.467C399.71 446.813 399.262 446.08 398.769 445.268C398.28 444.442 397.779 443.586 397.267 442.699C396.755 441.812 396.259 440.941 395.777 440.086C395.291 439.222 394.853 438.421 394.465 437.685C393.837 436.47 393.629 435.427 393.84 434.554C394.045 433.672 394.698 432.851 395.799 432.092L396.815 433.852C396.438 434.18 396.235 434.532 396.205 434.907C396.179 435.267 396.289 435.671 396.536 436.12C396.999 436.985 397.471 437.846 397.952 438.701C398.428 439.547 398.912 440.395 399.402 441.245C399.888 442.086 400.386 442.937 400.896 443.8C401.401 444.654 401.927 445.521 402.472 446.401C402.769 446.895 403.086 447.21 403.424 447.347C403.762 447.485 404.151 447.476 404.591 447.32L405.607 449.08C404.372 449.67 403.328 449.836 402.476 449.576C401.628 449.302 400.84 448.599 400.113 447.467ZM407.09 448.224L406.074 446.464C406.405 446.163 406.581 445.839 406.603 445.494C406.63 445.134 406.511 444.703 406.246 444.203C406.105 443.915 405.898 443.536 405.626 443.065C405.354 442.594 405.052 442.103 404.721 441.592L406.896 440.336C407.105 440.634 407.354 441.033 407.642 441.532C407.939 442.025 408.164 442.425 408.316 442.731C408.932 443.927 409.157 444.956 408.988 445.816C408.82 446.677 408.187 447.48 407.09 448.224ZM401.001 441.006L400.073 439.398L402.636 437.918C402.345 437.372 402.043 436.826 401.728 436.281C401.408 435.727 401.121 435.24 400.866 434.82C400.621 434.395 400.438 434.1 400.318 433.936C400.023 433.466 399.713 433.164 399.39 433.031C399.061 432.888 398.697 432.876 398.298 432.996L397.282 431.236C398.471 430.673 399.486 430.53 400.324 430.81C401.163 431.089 401.931 431.779 402.628 432.879C402.754 433.077 402.996 433.474 403.351 434.069C403.707 434.664 404.099 435.343 404.527 436.106C404.959 436.854 405.354 437.581 405.712 438.286L401.001 441.006ZM412.952 444.599L400.152 422.429L402.355 421.157L415.155 443.327L412.952 444.599ZM423.731 438.376C423.519 438.03 423.353 437.763 423.232 437.575C423.12 437.381 423.016 437.212 422.922 437.07C422.831 436.913 422.727 436.733 422.61 436.529C422.492 436.326 422.33 436.044 422.122 435.684C421.914 435.324 421.636 434.832 421.288 434.207C420.606 432.963 420.164 431.845 419.961 430.853C419.762 429.847 419.752 428.923 419.931 428.081C420.104 427.23 420.402 426.423 420.825 425.662L421.855 423.83C422.298 423.019 422.449 422.298 422.305 421.666C422.162 421.035 421.947 420.426 421.658 419.841C421.323 419.197 420.96 418.526 420.57 417.828C420.179 417.13 419.774 416.471 419.354 415.851C419.044 415.377 418.687 415.078 418.283 414.955C417.882 414.816 417.427 414.839 416.918 415.022L415.83 413.138C417.148 412.499 418.268 412.327 419.189 412.621C420.114 412.9 420.982 413.667 421.793 414.923C421.93 415.139 422.098 415.418 422.295 415.76C422.502 416.097 422.712 416.45 422.925 416.819C423.138 417.189 423.334 417.538 423.511 417.866C423.692 418.181 423.834 418.437 423.937 418.637C424.402 419.526 424.688 420.352 424.796 421.115C424.904 421.878 424.866 422.614 424.684 423.323C424.502 424.031 424.211 424.754 423.811 425.49L422.708 427.42C422.436 427.909 422.307 428.464 422.321 429.085C422.343 429.7 422.465 430.338 422.686 430.998C422.912 431.644 423.203 432.276 423.56 432.895L425.976 437.08L423.731 438.376ZM415.406 423.987C415.066 423.42 414.758 422.92 414.484 422.487C414.219 422.049 413.971 421.631 413.742 421.234C413.513 420.837 413.275 420.414 413.028 419.965C412.338 418.664 412.104 417.543 412.324 416.602C412.54 415.653 413.219 414.781 414.361 413.986L415.457 415.884C415.034 416.239 414.799 416.621 414.751 417.03C414.699 417.43 414.793 417.85 415.035 418.289C415.39 418.946 415.791 419.663 416.239 420.439C416.682 421.206 417.138 421.965 417.609 422.715L415.406 423.987ZM427.459 436.224L426.323 434.256L431.256 431.408L432.392 433.376L427.459 436.224Z" fill="#D16014"/>
<path d="M554.756 374.394C553.445 374.308 552.486 373.948 551.88 373.314C551.273 372.671 550.942 371.669 550.888 370.31C550.872 369.74 550.856 369.21 550.841 368.72C550.835 368.22 550.835 367.72 550.84 367.22C550.844 366.71 550.853 366.16 550.867 365.57L553.162 365.545C553.132 366.436 553.116 367.291 553.114 368.111C553.123 368.921 553.157 369.746 553.216 370.585C553.242 371.135 553.366 371.544 553.589 371.811C553.822 372.079 554.203 372.245 554.734 372.309L554.756 374.394ZM556.361 374.377L556.339 372.292C556.828 372.207 557.176 372.033 557.384 371.771C557.591 371.499 557.711 371.087 557.745 370.537C557.781 370.106 557.796 369.641 557.791 369.141C557.795 368.631 557.785 368.126 557.759 367.627C557.744 367.127 557.724 366.657 557.699 366.217C557.671 365.417 557.505 364.819 557.2 364.422C556.896 364.026 556.403 363.746 555.721 363.583L554.052 363.196C553.23 363.005 552.582 362.721 552.108 362.346C551.634 361.961 551.293 361.445 551.086 360.797C550.879 360.149 550.756 359.326 550.715 358.326C550.698 357.676 550.686 357.001 550.678 356.301C550.681 355.591 550.683 354.876 550.686 354.156C550.711 352.806 551.021 351.807 551.614 351.161C552.207 350.515 553.168 350.139 554.497 350.035L554.519 352.12C554.01 352.196 553.642 352.37 553.415 352.642C553.197 352.904 553.082 353.311 553.068 353.861C553.036 354.621 553.024 355.356 553.031 356.066C553.039 356.776 553.067 357.521 553.115 358.3C553.144 359.16 553.271 359.794 553.495 360.202C553.719 360.599 554.102 360.86 554.644 360.984L556.222 361.328C557.165 361.538 557.908 361.835 558.452 362.219C559.006 362.603 559.407 363.119 559.653 363.766C559.91 364.413 560.059 365.222 560.099 366.192C560.124 366.611 560.139 367.056 560.144 367.526C560.148 367.986 560.148 368.446 560.143 368.906C560.138 369.366 560.133 369.801 560.127 370.212C560.082 371.572 559.767 372.58 559.184 373.237C558.601 373.893 557.66 374.273 556.361 374.377ZM557.572 358.508C557.593 357.588 557.599 356.753 557.591 356.003C557.593 355.253 557.575 354.523 557.537 353.813C557.512 353.273 557.392 352.87 557.179 352.602C556.967 352.334 556.615 352.163 556.124 352.088L556.102 350.018C557.373 350.105 558.302 350.465 558.889 351.099C559.475 351.732 559.801 352.729 559.865 354.088C559.892 354.708 559.904 355.393 559.902 356.143C559.9 356.883 559.893 357.663 559.882 358.483L557.572 358.508ZM562.931 370.437C562.903 369.717 562.874 368.912 562.845 368.022C562.825 367.123 562.81 366.193 562.8 365.233C562.79 364.273 562.785 363.333 562.785 362.413C562.785 361.483 562.796 360.628 562.818 359.847C562.864 358.567 563.174 357.618 563.748 357.002C564.321 356.376 565.232 356.006 566.481 355.893L566.501 357.798C566.042 357.893 565.714 358.086 565.517 358.378C565.33 358.66 565.234 359.042 565.23 359.522C565.209 360.442 565.199 361.362 565.199 362.282C565.199 363.192 565.203 364.107 565.213 365.027C565.223 365.937 565.238 366.862 565.258 367.802C565.278 368.732 565.308 369.681 565.348 370.651C565.364 371.191 565.478 371.595 565.691 371.862C565.904 372.13 566.226 372.302 566.657 372.377L566.677 374.282C565.396 374.196 564.467 373.851 563.891 373.247C563.324 372.633 563.004 371.696 562.931 370.437ZM568.282 374.265L568.261 372.36C568.67 372.266 568.964 372.083 569.141 371.811C569.328 371.529 569.428 371.123 569.443 370.592C569.46 370.292 569.465 369.887 569.46 369.377C569.454 368.867 569.434 368.327 569.398 367.758L571.752 367.733C571.786 368.072 571.806 368.512 571.811 369.052C571.827 369.592 571.827 370.022 571.81 370.342C571.764 371.603 571.474 372.546 570.94 373.172C570.407 373.797 569.521 374.162 568.282 374.265ZM566.629 365.567L566.611 363.827L569.385 363.798C569.399 363.217 569.403 362.632 569.397 362.042C569.39 361.442 569.38 360.912 569.365 360.453C569.36 359.993 569.346 359.668 569.324 359.478C569.299 358.958 569.185 358.569 568.982 358.312C568.779 358.044 568.487 357.867 568.106 357.781L568.086 355.876C569.317 355.963 570.211 356.313 570.767 356.927C571.324 357.542 571.634 358.458 571.697 359.678C571.709 359.898 571.724 360.332 571.741 360.982C571.757 361.632 571.765 362.367 571.764 363.187C571.773 363.997 571.761 364.772 571.729 365.513L566.629 365.567ZM574.444 370.314C574.416 369.594 574.387 368.79 574.358 367.9C574.338 367 574.323 366.07 574.313 365.11C574.303 364.15 574.298 363.21 574.298 362.29C574.298 361.36 574.309 360.505 574.331 359.725C574.377 358.444 574.687 357.496 575.261 356.88C575.834 356.254 576.745 355.884 577.994 355.77L578.014 357.675C577.555 357.77 577.227 357.964 577.03 358.256C576.843 358.538 576.748 358.919 576.743 359.399C576.722 360.319 576.712 361.239 576.712 362.159C576.712 363.07 576.716 363.985 576.726 364.905C576.736 365.814 576.751 366.739 576.771 367.679C576.791 368.609 576.821 369.559 576.861 370.528C576.877 371.068 576.991 371.472 577.204 371.74C577.417 372.008 577.739 372.179 578.17 372.255L578.19 374.159C576.909 374.073 575.98 373.728 575.404 373.124C574.837 372.51 574.517 371.573 574.444 370.314ZM579.795 374.142L579.774 372.237C580.183 372.143 580.477 371.96 580.654 371.688C580.841 371.406 580.941 371 580.956 370.47C580.973 370.17 580.978 369.765 580.973 369.255C580.967 368.745 580.947 368.205 580.911 367.635L583.265 367.61C583.299 367.95 583.319 368.39 583.324 368.929C583.34 369.469 583.34 369.899 583.323 370.22C583.277 371.48 582.987 372.423 582.453 373.049C581.92 373.675 581.034 374.039 579.795 374.142ZM578.142 365.444L578.124 363.705L580.898 363.675C580.912 363.095 580.916 362.51 580.91 361.92C580.903 361.32 580.893 360.79 580.878 360.33C580.873 359.87 580.859 359.545 580.837 359.355C580.812 358.836 580.698 358.447 580.495 358.189C580.292 357.921 580 357.744 579.619 357.658L579.599 355.753C580.83 355.84 581.724 356.191 582.28 356.805C582.837 357.419 583.147 358.336 583.21 359.555C583.222 359.775 583.237 360.21 583.254 360.86C583.27 361.51 583.278 362.245 583.277 363.065C583.286 363.875 583.274 364.65 583.242 365.39L578.142 365.444ZM585.958 370.312C585.919 369.492 585.89 368.612 585.87 367.672C585.85 366.722 585.835 365.768 585.824 364.808C585.824 363.838 585.824 362.893 585.824 361.972C585.824 361.052 585.83 360.212 585.842 359.452C585.868 358.072 586.162 357.094 586.726 356.518C587.3 355.931 588.112 355.633 589.162 355.622C589.562 355.617 589.912 355.654 590.213 355.73C590.514 355.807 590.785 355.929 591.027 356.097L591.043 357.627C590.732 357.49 590.376 357.424 589.976 357.428C589.366 357.435 588.933 357.579 588.676 357.862C588.418 358.135 588.283 358.581 588.27 359.201C588.233 360.442 588.212 361.732 588.206 363.072C588.21 364.412 588.224 365.712 588.248 366.972C588.281 368.232 588.318 369.366 588.359 370.376C588.386 371.076 588.541 371.564 588.824 371.841C589.107 372.108 589.539 372.239 590.119 372.232C590.539 372.228 590.898 372.159 591.197 372.026L591.213 373.526C590.964 373.698 590.686 373.831 590.377 373.925C590.068 374.018 589.708 374.067 589.298 374.071C588.198 374.083 587.38 373.797 586.844 373.212C586.318 372.618 586.022 371.651 585.958 370.312ZM592.776 373.809L592.52 349.811L594.95 349.785L595.205 373.783L592.776 373.809ZM611.306 373.612L609.849 365.017L607.908 351.777L604.653 351.811L604.631 349.682L609.625 349.628L610.925 357.55L613.053 371.433L616.293 371.399L616.316 373.559L611.306 373.612ZM604.886 373.68L604.666 352.951L606.81 352.929L607.024 364.522L607.256 373.655L604.886 373.68ZM614.106 370.282L613.886 358.104L613.675 349.585L616.06 349.56L616.28 370.259L614.106 370.282ZM619.541 369.534C619.504 368.924 619.472 368.205 619.443 367.375C619.424 366.535 619.41 365.655 619.4 364.735C619.39 363.815 619.385 362.905 619.386 362.005C619.396 361.095 619.412 360.27 619.434 359.53C619.489 358.129 619.788 357.101 620.332 356.445C620.884 355.779 621.82 355.394 623.139 355.29L623.16 357.195C622.671 357.29 622.323 357.484 622.116 357.776C621.919 358.058 621.813 358.474 621.799 359.024C621.778 359.825 621.762 360.67 621.751 361.56C621.741 362.45 621.74 363.365 621.75 364.305C621.76 365.245 621.775 366.195 621.796 367.155C621.826 368.105 621.866 369.039 621.915 369.959C621.941 370.508 622.061 370.932 622.274 371.23C622.487 371.518 622.834 371.704 623.315 371.789L623.335 373.679C622.014 373.593 621.065 373.223 620.488 372.569C619.921 371.915 619.605 370.903 619.541 369.534ZM624.925 373.662L624.905 371.772C625.384 371.667 625.722 371.468 625.919 371.176C626.116 370.884 626.221 370.478 626.236 369.958C626.256 369.047 626.271 368.142 626.282 367.242C626.292 366.332 626.292 365.422 626.283 364.512C626.283 363.592 626.268 362.667 626.238 361.737C626.208 360.807 626.168 359.873 626.118 358.933C626.093 358.394 625.973 357.985 625.76 357.707C625.557 357.429 625.22 357.248 624.749 357.163L624.729 355.273C625.62 355.323 626.332 355.506 626.865 355.82C627.399 356.125 627.793 356.575 628.05 357.173C628.306 357.76 628.459 358.513 628.509 359.433C628.546 360.113 628.574 360.872 628.593 361.712C628.622 362.552 628.641 363.422 628.651 364.322C628.66 365.212 628.66 366.097 628.649 366.977C628.648 367.857 628.637 368.677 628.615 369.437C628.575 370.358 628.433 371.114 628.189 371.707C627.956 372.3 627.576 372.759 627.049 373.084C626.522 373.4 625.814 373.592 624.925 373.662ZM631.453 369.827C631.415 369.008 631.385 368.128 631.365 367.188C631.345 366.238 631.33 365.283 631.32 364.323C631.32 363.353 631.319 362.408 631.32 361.488C631.32 360.568 631.326 359.728 631.338 358.968C631.363 357.587 631.658 356.609 632.222 356.033C632.795 355.447 633.607 355.148 634.657 355.137C635.057 355.133 635.408 355.169 635.708 355.246C636.009 355.323 636.281 355.445 636.522 355.612L636.539 357.142C636.227 357.006 635.871 356.939 635.472 356.944C634.862 356.95 634.428 357.095 634.171 357.378C633.914 357.65 633.779 358.097 633.765 358.717C633.729 359.957 633.707 361.248 633.702 362.588C633.706 363.928 633.72 365.228 633.743 366.488C633.776 367.747 633.814 368.882 633.854 369.892C633.882 370.591 634.037 371.08 634.32 371.357C634.603 371.624 635.034 371.754 635.614 371.748C636.034 371.743 636.393 371.675 636.692 371.541L636.708 373.041C636.46 373.214 636.181 373.347 635.872 373.44C635.563 373.534 635.204 373.582 634.794 373.587C633.694 373.599 632.876 373.312 632.339 372.728C631.813 372.133 631.518 371.167 631.453 369.827ZM638.271 373.325L638.016 349.326L640.445 349.3L640.701 373.299L638.271 373.325ZM643.727 369.576C643.699 368.857 643.671 368.052 643.641 367.162C643.622 366.262 643.607 365.333 643.596 364.373C643.586 363.413 643.581 362.473 643.581 361.553C643.582 360.623 643.592 359.767 643.614 358.987C643.66 357.707 643.97 356.758 644.544 356.142C645.117 355.516 646.028 355.146 647.277 355.033L647.298 356.938C646.839 357.033 646.511 357.226 646.314 357.518C646.127 357.8 646.031 358.181 646.026 358.661C646.006 359.582 645.995 360.502 645.995 361.422C645.995 362.332 646 363.247 646.009 364.167C646.019 365.077 646.034 366.002 646.054 366.942C646.074 367.871 646.104 368.821 646.144 369.791C646.16 370.331 646.274 370.734 646.487 371.002C646.7 371.27 647.022 371.441 647.453 371.517L647.473 373.422C646.192 373.335 645.263 372.99 644.687 372.386C644.12 371.772 643.8 370.836 643.727 369.576ZM649.078 373.405L649.058 371.5C649.467 371.405 649.76 371.222 649.937 370.95C650.124 370.668 650.225 370.262 650.239 369.732C650.256 369.432 650.261 369.027 650.256 368.517C650.251 368.007 650.23 367.467 650.194 366.897L652.549 366.872C652.582 367.212 652.602 367.652 652.608 368.192C652.623 368.732 652.623 369.162 652.606 369.482C652.56 370.742 652.27 371.686 651.736 372.311C651.203 372.937 650.317 373.302 649.078 373.405ZM647.425 364.707L647.407 362.967L650.182 362.937C650.195 362.357 650.199 361.772 650.193 361.182C650.186 360.582 650.176 360.052 650.161 359.592C650.156 359.132 650.143 358.808 650.121 358.618C650.095 358.098 649.981 357.709 649.778 357.451C649.575 357.184 649.283 357.007 648.902 356.921L648.882 355.016C650.113 355.103 651.007 355.453 651.563 356.067C652.12 356.681 652.43 357.598 652.493 358.818C652.505 359.037 652.52 359.472 652.537 360.122C652.554 360.772 652.561 361.507 652.56 362.327C652.569 363.137 652.557 363.912 652.525 364.653L647.425 364.707ZM655 369.456C654.985 368.997 654.975 368.557 654.971 368.137C654.976 367.717 654.987 367.286 655.002 366.846L657.177 366.823C657.154 367.443 657.144 367.989 657.149 368.459C657.164 368.918 657.174 369.323 657.177 369.673C657.193 370.213 657.292 370.617 657.475 370.885C657.668 371.143 657.975 371.315 658.396 371.4L658.416 373.305C657.205 373.218 656.346 372.872 655.84 372.268C655.343 371.653 655.063 370.716 655 369.456ZM660.006 373.288L659.986 371.398C660.455 371.313 660.793 371.135 661 370.863C661.207 370.58 661.318 370.164 661.332 369.614C661.339 369.324 661.341 369.074 661.339 368.864C661.337 368.654 661.335 368.454 661.333 368.264C661.33 368.064 661.323 367.844 661.311 367.604C661.283 366.894 661.177 366.376 660.994 366.047C660.81 365.709 660.433 365.453 659.861 365.279L658.206 364.832C657.413 364.61 656.78 364.332 656.307 363.997C655.833 363.652 655.483 363.206 655.258 362.658C655.042 362.101 654.914 361.382 654.875 360.502C654.861 360.142 654.853 359.847 654.85 359.617C654.848 359.377 654.85 359.127 654.857 358.867C654.874 357.587 655.138 356.634 655.652 356.009C656.175 355.383 657.076 355.019 658.355 354.915L658.375 356.805C657.966 356.899 657.673 357.077 657.496 357.339C657.329 357.601 657.238 358.002 657.224 358.542C657.226 358.722 657.223 358.962 657.216 359.262C657.21 359.562 657.208 359.887 657.212 360.237C657.239 360.947 657.336 361.516 657.5 361.944C657.665 362.373 658.063 362.673 658.695 362.847L660.259 363.235C661.382 363.513 662.212 363.974 662.749 364.619C663.286 365.253 663.561 366.215 663.575 367.505C663.578 367.865 663.582 368.185 663.585 368.465C663.588 368.735 663.581 369.055 663.565 369.425C663.538 370.676 663.258 371.609 662.725 372.224C662.201 372.83 661.295 373.185 660.006 373.288ZM661.124 361.336C661.14 361.006 661.147 360.666 661.143 360.316C661.139 359.956 661.135 359.616 661.132 359.296C661.129 358.976 661.121 358.706 661.108 358.486C661.093 357.966 660.999 357.577 660.826 357.319C660.663 357.05 660.376 356.883 659.966 356.818L659.945 354.898C661.136 354.985 661.99 355.331 662.506 355.936C663.023 356.54 663.313 357.477 663.376 358.747C663.378 358.897 663.38 359.132 663.384 359.452C663.387 359.762 663.386 360.087 663.379 360.427C663.383 360.767 663.371 361.062 663.344 361.312L661.124 361.336Z" fill="black"/>
<path d="M462.822 131.276L465.282 112.049L471.497 111.982L471.915 115.146L467.979 115.188L467.931 119.701L467.425 124.051L469.081 124.033L468.275 127.21L467.123 127.222L466.518 131.237L462.822 131.276ZM470.598 131.193L469.059 119.689L468.952 116.402L472.024 116.369L474.293 131.154L470.598 131.193Z" fill="#524B0F"/>
<path d="M486.566 191.268L486.362 172.069L489.962 172.031L490.166 191.229L486.566 191.268ZM491.75 191.213L491.716 188.045L491.74 188.045C492.244 188.039 492.627 187.903 492.888 187.636C493.157 187.361 493.289 186.972 493.284 186.468C493.281 186.252 493.279 186.04 493.277 185.832C493.275 185.624 493.272 185.412 493.27 185.196C493.262 184.404 493.132 183.845 492.88 183.52C492.637 183.187 492.239 183.023 491.687 183.029L491.663 183.029L491.629 179.861L491.653 179.861C492.157 179.856 492.539 179.68 492.8 179.333C493.068 178.978 493.199 178.484 493.192 177.853C493.189 177.621 493.187 177.393 493.185 177.169C493.182 176.937 493.18 176.709 493.177 176.485C493.173 176.061 493.033 175.738 492.759 175.517C492.493 175.288 492.107 175.176 491.603 175.181L491.579 175.182L491.546 172.014L491.57 172.013C493.362 171.994 494.673 172.344 495.505 173.064C496.337 173.775 496.761 174.966 496.779 176.638C496.782 176.862 496.784 177.078 496.786 177.286C496.788 177.494 496.783 177.702 496.769 177.91C496.73 178.783 496.541 179.481 496.203 180.005C495.872 180.52 495.353 180.902 494.643 181.149L494.649 181.725C495.388 181.957 495.932 182.336 496.281 182.86C496.631 183.376 496.826 184.086 496.868 184.99C496.887 185.254 496.898 185.497 496.9 185.721C496.902 185.945 496.897 186.198 496.884 186.478C496.83 188.142 496.41 189.343 495.626 190.079C494.85 190.816 493.566 191.193 491.774 191.212L491.75 191.213Z" fill="#524B0F"/>
<path d="M370.524 518.195L370.354 502.196L373.354 502.164L373.524 518.163L370.524 518.195ZM374.844 518.149L374.816 515.509L374.836 515.509C375.256 515.505 375.575 515.391 375.792 515.169C376.016 514.94 376.126 514.615 376.122 514.195C376.12 514.015 376.118 513.839 376.116 513.665C376.114 513.492 376.112 513.315 376.111 513.135C376.104 512.475 375.995 512.01 375.786 511.739C375.583 511.461 375.251 511.324 374.791 511.329L374.771 511.329L374.743 508.69L374.763 508.689C375.183 508.685 375.502 508.538 375.719 508.249C375.942 507.953 376.051 507.542 376.045 507.016C376.043 506.822 376.041 506.632 376.039 506.446C376.037 506.252 376.035 506.062 376.033 505.876C376.03 505.522 375.913 505.254 375.685 505.069C375.463 504.878 375.142 504.785 374.722 504.79L374.702 504.79L374.674 502.15L374.694 502.15C376.187 502.134 377.28 502.426 377.973 503.025C378.666 503.618 379.02 504.61 379.035 506.004C379.037 506.19 379.039 506.37 379.041 506.544C379.042 506.717 379.038 506.89 379.026 507.064C378.994 507.791 378.837 508.373 378.555 508.809C378.279 509.239 377.846 509.557 377.255 509.763L377.26 510.243C377.875 510.436 378.329 510.752 378.62 511.188C378.911 511.619 379.074 512.21 379.109 512.963C379.125 513.183 379.133 513.386 379.135 513.573C379.137 513.76 379.133 513.97 379.122 514.203C379.077 515.59 378.728 516.591 378.074 517.205C377.427 517.818 376.357 518.133 374.864 518.149L374.844 518.149ZM381.516 518.078L381.374 504.719L380.174 504.732L380.083 503.672L381.986 502.072L384.465 502.046L384.636 518.045L381.516 518.078Z" fill="#524B0F"/>
<path d="M380.376 543.207L380.205 527.208L383.205 527.176L383.376 543.175L380.376 543.207ZM384.696 543.161L384.667 540.522L384.687 540.521C385.107 540.517 385.426 540.404 385.644 540.181C385.868 539.952 385.978 539.628 385.974 539.208C385.972 539.028 385.97 538.851 385.968 538.678C385.966 538.504 385.964 538.328 385.962 538.148C385.955 537.488 385.847 537.022 385.637 536.751C385.434 536.473 385.103 536.337 384.643 536.342L384.623 536.342L384.595 533.702L384.615 533.702C385.035 533.697 385.353 533.551 385.57 533.262C385.794 532.966 385.903 532.555 385.897 532.028C385.895 531.835 385.893 531.645 385.891 531.458C385.889 531.265 385.887 531.075 385.885 530.888C385.881 530.535 385.765 530.266 385.536 530.082C385.314 529.891 384.993 529.798 384.573 529.802L384.553 529.802L384.525 527.162L384.545 527.162C386.038 527.146 387.132 527.438 387.825 528.037C388.518 528.63 388.872 529.623 388.886 531.016C388.888 531.203 388.89 531.383 388.892 531.556C388.894 531.729 388.889 531.903 388.878 532.076C388.846 532.803 388.688 533.385 388.406 533.821C388.131 534.251 387.698 534.569 387.106 534.775L387.112 535.255C387.727 535.449 388.18 535.764 388.472 536.201C388.763 536.631 388.926 537.223 388.961 537.976C388.976 538.196 388.985 538.399 388.987 538.585C388.989 538.772 388.985 538.982 388.974 539.216C388.929 540.603 388.579 541.603 387.926 542.217C387.279 542.831 386.209 543.145 384.716 543.161L384.696 543.161ZM390.418 543.101C390.408 542.854 390.399 542.624 390.39 542.411C390.388 542.197 390.383 541.994 390.374 541.801C390.372 541.601 390.366 541.401 390.357 541.201C390.355 541.001 390.353 540.788 390.351 540.561C390.355 540.328 390.359 540.074 390.363 539.801C390.375 539.121 390.495 538.496 390.723 537.927C390.957 537.351 391.304 536.827 391.766 536.356C392.228 535.878 392.81 535.448 393.512 535.067L394.904 534.312C395.362 534.067 395.655 533.771 395.785 533.423C395.915 533.075 395.988 532.761 396.005 532.48C396.021 532.147 396.031 531.787 396.033 531.4C396.036 531.007 396.025 530.64 396.002 530.3C395.986 530.074 395.914 529.881 395.786 529.723C395.664 529.564 395.486 529.449 395.252 529.378L395.225 526.868C396.553 526.934 397.503 527.278 398.076 527.898C398.656 528.512 398.98 529.482 399.047 530.808C399.056 530.968 399.061 531.118 399.062 531.258C399.07 531.391 399.075 531.521 399.076 531.648C399.078 531.768 399.076 531.891 399.07 532.018C399.072 532.144 399.07 532.281 399.065 532.428C399.046 533.168 398.909 533.813 398.655 534.362C398.401 534.905 398.056 535.379 397.62 535.783C397.185 536.188 396.682 536.547 396.112 536.86L394.501 537.737C394.229 537.886 394.015 538.085 393.857 538.334C393.706 538.575 393.599 538.826 393.535 539.087C393.471 539.348 393.44 539.575 393.442 539.768L393.478 543.068L390.418 543.101ZM390.331 533.101C390.315 532.841 390.302 532.581 390.293 532.321C390.283 532.055 390.274 531.801 390.265 531.561C390.262 531.322 390.263 531.101 390.268 530.901C390.307 529.581 390.61 528.608 391.177 527.982C391.75 527.349 392.66 526.982 393.905 526.882L393.932 529.402C393.726 529.478 393.574 529.589 393.476 529.737C393.377 529.885 393.326 530.055 393.321 530.249C393.307 530.789 393.299 531.266 393.296 531.679C393.301 532.086 393.319 532.549 393.351 533.069L390.331 533.101ZM394.797 543.054L394.769 540.414L398.909 540.37L398.937 543.01L394.797 543.054Z" fill="#524B0F"/>
<path d="M401.327 563.218L401.157 547.219L404.156 547.187L404.327 563.186L401.327 563.218ZM405.647 563.172L405.619 560.533L405.639 560.532C406.059 560.528 406.377 560.414 406.595 560.192C406.819 559.963 406.929 559.639 406.925 559.219C406.923 559.039 406.921 558.862 406.919 558.689C406.917 558.515 406.915 558.339 406.913 558.159C406.906 557.499 406.798 557.033 406.589 556.762C406.386 556.484 406.054 556.348 405.594 556.353L405.574 556.353L405.546 553.713L405.566 553.713C405.986 553.708 406.304 553.562 406.521 553.273C406.745 552.977 406.854 552.566 406.848 552.039C406.846 551.846 406.844 551.656 406.842 551.469C406.84 551.276 406.838 551.086 406.836 550.899C406.832 550.546 406.716 550.277 406.488 550.093C406.265 549.902 405.944 549.808 405.525 549.813L405.505 549.813L405.476 547.173L405.496 547.173C406.99 547.157 408.083 547.449 408.776 548.048C409.469 548.641 409.823 549.634 409.838 551.027C409.84 551.214 409.842 551.394 409.843 551.567C409.845 551.74 409.84 551.914 409.829 552.087C409.797 552.814 409.64 553.396 409.358 553.832C409.082 554.262 408.649 554.58 408.058 554.786L408.063 555.266C408.678 555.46 409.132 555.775 409.423 556.212C409.714 556.642 409.877 557.234 409.912 557.987C409.927 558.207 409.936 558.41 409.938 558.596C409.94 558.783 409.936 558.993 409.925 559.227C409.88 560.614 409.53 561.614 408.877 562.228C408.23 562.842 407.16 563.156 405.667 563.172L405.647 563.172ZM411.108 559.294C411.099 559.054 411.09 558.871 411.082 558.744C411.081 558.618 411.08 558.491 411.078 558.364C411.084 558.238 411.088 558.054 411.092 557.814L414.152 557.782L414.172 559.661C414.178 560.215 414.442 560.575 414.964 560.743L414.991 563.253C413.663 563.174 412.696 562.824 412.089 562.204C411.483 561.584 411.156 560.614 411.108 559.294ZM411.227 549.752L411.199 547.112L419.878 547.02L419.906 549.66L411.227 549.752ZM416.274 560.739C416.806 560.587 417.078 560.224 417.092 559.65C417.101 559.21 417.104 558.82 417.1 558.48C417.103 558.14 417.093 557.817 417.07 557.51C417.046 557.151 416.926 556.832 416.709 556.554C416.5 556.276 416.088 556.148 415.475 556.167L413.456 556.209L413.349 553.69L415.676 550.625L419.036 550.589L416.688 553.574L416.748 553.574C417.861 553.562 418.681 553.886 419.208 554.548C419.742 555.202 420.049 556.205 420.13 557.558C420.138 557.698 420.143 557.831 420.145 557.958C420.152 558.078 420.157 558.198 420.158 558.318C420.16 558.438 420.161 558.571 420.163 558.718C420.164 558.858 420.159 559.018 420.148 559.198C420.109 560.545 419.789 561.535 419.189 562.168C418.589 562.801 417.63 563.162 416.311 563.249L416.274 560.739Z" fill="#524B0F"/>
<path d="M433.673 563.225L433.502 547.226L436.502 547.194L436.673 563.193L433.673 563.225ZM437.992 563.179L437.964 560.54L437.984 560.539C438.404 560.535 438.723 560.421 438.941 560.199C439.165 559.97 439.275 559.646 439.27 559.226C439.269 559.046 439.267 558.869 439.265 558.696C439.263 558.522 439.261 558.346 439.259 558.166C439.252 557.506 439.144 557.04 438.934 556.769C438.731 556.491 438.4 556.355 437.94 556.36L437.92 556.36L437.892 553.72L437.912 553.72C438.332 553.715 438.65 553.569 438.867 553.28C439.091 552.984 439.2 552.573 439.194 552.046C439.192 551.853 439.19 551.663 439.188 551.476C439.186 551.283 439.184 551.093 439.182 550.906C439.178 550.553 439.062 550.284 438.833 550.1C438.611 549.909 438.29 549.815 437.87 549.82L437.85 549.82L437.822 547.18L437.842 547.18C439.335 547.164 440.429 547.456 441.122 548.055C441.815 548.648 442.169 549.641 442.183 551.034C442.185 551.221 442.187 551.401 442.189 551.574C442.191 551.747 442.186 551.921 442.175 552.094C442.142 552.821 441.985 553.403 441.703 553.839C441.428 554.269 440.995 554.587 440.403 554.793L440.408 555.273C441.024 555.467 441.477 555.782 441.769 556.219C442.06 556.649 442.223 557.241 442.258 557.994C442.273 558.214 442.282 558.417 442.284 558.603C442.286 558.79 442.282 559 442.271 559.234C442.225 560.621 441.876 561.621 441.223 562.235C440.576 562.849 439.506 563.163 438.012 563.179L437.992 563.179ZM443.362 559.102L443.335 556.602L445.07 552.363L448.03 552.332L446.254 556.451L447.154 556.441L447.182 559.061L443.362 559.102ZM448.544 563.067L448.374 547.068L451.234 547.038L451.404 563.037L448.544 563.067ZM452.681 559.003L452.653 556.383L453.953 556.369L453.981 558.989L452.681 559.003Z" fill="#524B0F"/>
<path d="M465.161 543.22L464.991 527.221L467.99 527.189L468.161 543.188L465.161 543.22ZM469.481 543.174L469.453 540.534L469.473 540.534C469.893 540.53 470.211 540.416 470.429 540.194C470.653 539.965 470.763 539.64 470.759 539.22C470.757 539.04 470.755 538.864 470.753 538.69C470.751 538.517 470.749 538.34 470.747 538.16C470.74 537.5 470.632 537.035 470.423 536.764C470.22 536.486 469.888 536.349 469.428 536.354L469.408 536.355L469.38 533.715L469.4 533.715C469.82 533.71 470.138 533.563 470.355 533.274C470.579 532.979 470.688 532.567 470.682 532.041C470.68 531.847 470.678 531.657 470.676 531.471C470.674 531.277 470.672 531.087 470.67 530.901C470.666 530.548 470.55 530.279 470.322 530.095C470.099 529.904 469.778 529.81 469.358 529.815L469.338 529.815L469.31 527.175L469.33 527.175C470.824 527.159 471.917 527.451 472.61 528.05C473.303 528.643 473.657 529.636 473.672 531.029C473.674 531.216 473.676 531.396 473.677 531.569C473.679 531.742 473.674 531.916 473.663 532.089C473.631 532.816 473.474 533.398 473.192 533.834C472.916 534.264 472.483 534.582 471.892 534.788L471.897 535.268C472.512 535.461 472.966 535.777 473.257 536.214C473.548 536.644 473.711 537.235 473.746 537.988C473.761 538.208 473.77 538.412 473.772 538.598C473.774 538.785 473.77 538.995 473.759 539.228C473.714 540.616 473.364 541.616 472.711 542.23C472.064 542.843 470.994 543.158 469.501 543.174L469.481 543.174ZM475.232 539.293C475.221 538.9 475.218 538.6 475.223 538.393C475.227 538.186 475.232 537.993 475.236 537.813L478.296 537.78C478.278 537.947 478.264 538.16 478.253 538.421C478.249 538.674 478.248 538.921 478.251 539.161C478.253 539.394 478.262 539.561 478.276 539.66C478.313 539.933 478.398 540.162 478.534 540.348C478.669 540.526 478.86 540.654 479.108 540.732L479.135 543.251C477.8 543.172 476.827 542.826 476.213 542.212C475.607 541.592 475.28 540.619 475.232 539.293ZM475.461 536.33L475.363 527.111L478.402 527.078L478.501 536.298L475.461 536.33ZM479.81 535.264L479.787 533.144C479.992 533.028 480.218 532.939 480.464 532.877C480.71 532.807 480.976 532.771 481.263 532.768C482.216 532.758 482.936 533.06 483.423 533.675C483.909 534.29 484.188 535.124 484.26 536.176C484.29 536.563 484.311 536.933 484.321 537.286C484.332 537.639 484.332 537.976 484.322 538.296C484.312 538.616 484.295 538.916 484.272 539.197C484.159 540.544 483.82 541.535 483.253 542.168C482.687 542.794 481.754 543.15 480.455 543.237L480.428 540.728C480.68 540.645 480.869 540.513 480.994 540.331C481.125 540.143 481.199 539.909 481.216 539.629C481.269 538.915 481.295 538.305 481.297 537.798C481.305 537.291 481.279 536.808 481.221 536.349C481.177 535.976 481.048 535.701 480.832 535.523C480.617 535.345 480.29 535.259 479.85 535.263C479.843 535.263 479.836 535.264 479.83 535.264C479.823 535.264 479.816 535.264 479.81 535.264ZM479.75 529.704L479.722 527.064L483.882 527.02L483.91 529.66L479.75 529.704Z" fill="#524B0F"/>
<path d="M495.239 518.219L495.069 502.22L498.069 502.188L498.239 518.187L495.239 518.219ZM499.559 518.173L499.531 515.534L499.551 515.533C499.971 515.529 500.29 515.415 500.507 515.193C500.731 514.964 500.841 514.64 500.837 514.22C500.835 514.04 500.833 513.863 500.831 513.69C500.829 513.516 500.827 513.34 500.826 513.16C500.819 512.5 500.71 512.034 500.501 511.763C500.298 511.485 499.966 511.349 499.506 511.354L499.486 511.354L499.458 508.714L499.478 508.714C499.898 508.709 500.217 508.562 500.434 508.273C500.657 507.978 500.766 507.567 500.76 507.04C500.758 506.847 500.756 506.657 500.754 506.47C500.752 506.277 500.75 506.087 500.748 505.9C500.744 505.547 500.628 505.278 500.4 505.094C500.178 504.903 499.857 504.809 499.437 504.814L499.417 504.814L499.389 502.174L499.409 502.174C500.902 502.158 501.995 502.45 502.688 503.049C503.381 503.642 503.735 504.635 503.75 506.028C503.752 506.215 503.754 506.395 503.756 506.568C503.757 506.741 503.753 506.915 503.741 507.088C503.709 507.815 503.552 508.397 503.27 508.833C502.994 509.263 502.561 509.581 501.97 509.787L501.975 510.267C502.59 510.461 503.044 510.776 503.335 511.213C503.626 511.643 503.789 512.235 503.824 512.988C503.84 513.208 503.848 513.411 503.85 513.597C503.852 513.784 503.848 513.994 503.837 514.228C503.792 515.615 503.442 516.615 502.789 517.229C502.142 517.843 501.072 518.157 499.579 518.173L499.559 518.173ZM505.34 514.292C505.327 513.665 505.313 513.008 505.299 512.322C505.285 511.629 505.274 510.919 505.267 510.192C505.259 509.466 505.255 508.742 505.254 508.022C505.253 507.302 505.252 506.599 505.251 505.912C505.258 504.659 505.588 503.705 506.241 503.051C506.9 502.391 507.803 502.005 508.949 501.892L508.975 504.412C508.756 504.481 508.587 504.593 508.469 504.748C508.357 504.896 508.303 505.086 508.305 505.32C508.304 506.473 508.306 507.583 508.31 508.65C508.315 509.71 508.323 510.746 508.334 511.76C508.344 512.773 508.362 513.779 508.386 514.779C508.388 515.019 508.454 515.222 508.582 515.387C508.711 515.546 508.888 515.661 509.116 515.731L509.143 518.251C507.815 518.185 506.858 517.846 506.272 517.232C505.685 516.611 505.375 515.631 505.34 514.292ZM509.6 510.476L509.578 508.386C509.79 508.257 510.029 508.158 510.295 508.088C510.56 508.012 510.847 507.973 511.153 507.969C512.287 507.957 513.066 508.216 513.492 508.744C513.924 509.267 514.157 510.144 514.19 511.377C514.201 511.797 514.208 512.144 514.211 512.417C514.22 512.69 514.223 512.96 514.22 513.227C514.222 513.487 514.216 513.81 514.2 514.197C514.147 515.525 513.834 516.508 513.261 517.147C512.695 517.78 511.762 518.143 510.463 518.237L510.436 515.737C510.669 515.662 510.844 515.546 510.962 515.392C511.081 515.231 511.142 515.03 511.146 514.79C511.156 514.436 511.162 514.116 511.166 513.83C511.169 513.536 511.173 513.259 511.177 512.999C511.181 512.739 511.181 512.486 511.179 512.239C511.176 511.993 511.167 511.743 511.151 511.49C511.141 511.15 511.008 510.894 510.753 510.724C510.504 510.546 510.18 510.46 509.78 510.464C509.753 510.464 509.723 510.465 509.69 510.465C509.663 510.465 509.633 510.469 509.6 510.476ZM510.983 506.951C511 506.738 511.008 506.564 511.007 506.431C511.012 506.291 511.011 506.141 511.002 505.981C510.994 505.814 510.981 505.584 510.965 505.291C510.956 505.078 510.897 504.892 510.789 504.733C510.681 504.574 510.516 504.463 510.295 504.398L510.269 501.898C511.45 501.993 512.354 502.376 512.981 503.05C513.615 503.716 513.958 504.586 514.009 505.659C514.017 505.799 514.022 505.922 514.023 506.029C514.031 506.135 514.032 506.255 514.027 506.389C514.028 506.522 514.027 506.699 514.022 506.919L510.983 506.951Z" fill="#524B0F"/>
<path d="M721.877 191.438C720.308 191.359 719.167 190.947 718.455 190.202C717.751 189.458 717.371 188.286 717.314 186.686C717.288 185.79 717.267 184.931 717.25 184.107C717.234 183.283 717.221 182.471 717.212 181.671C717.204 180.863 717.199 180.043 717.198 179.211C717.197 178.379 717.2 177.511 717.207 176.607C717.214 175.079 717.574 173.927 718.286 173.151C719.006 172.375 720.133 171.927 721.668 171.807L721.7 174.819C721.397 174.918 721.171 175.097 721.021 175.354C720.88 175.604 720.808 175.952 720.805 176.4C720.79 177.281 720.779 178.157 720.773 179.029C720.774 179.901 720.779 180.769 720.788 181.633C720.797 182.497 720.811 183.361 720.828 184.225C720.853 185.088 720.882 185.96 720.916 186.84C720.928 187.288 721.008 187.643 721.155 187.905C721.31 188.16 721.54 188.333 721.845 188.426L721.877 191.438ZM723.461 191.421L723.429 188.421C723.74 188.314 723.966 188.132 724.107 187.874C724.256 187.616 724.336 187.26 724.348 186.803C724.36 186.459 724.364 186.143 724.361 185.855C724.366 185.567 724.363 185.275 724.352 184.979C724.349 184.683 724.337 184.355 724.318 183.996L727.917 183.957C727.937 184.341 727.95 184.777 727.955 185.265C727.961 185.753 727.957 186.189 727.945 186.573C727.922 188.173 727.563 189.353 726.867 190.113C726.171 190.872 725.035 191.308 723.461 191.421ZM724.147 179.197C724.151 178.901 724.156 178.593 724.161 178.273C724.165 177.945 724.166 177.621 724.162 177.301C724.159 176.973 724.152 176.661 724.14 176.365C724.128 175.933 724.052 175.594 723.914 175.347C723.775 175.093 723.565 174.915 723.284 174.814L723.252 171.79C724.741 171.886 725.845 172.323 726.566 173.099C727.294 173.875 727.686 175.015 727.742 176.519C727.753 176.783 727.76 177.07 727.763 177.382C727.767 177.686 727.766 177.994 727.761 178.307C727.756 178.611 727.751 178.895 727.746 179.159L724.147 179.197Z" fill="#524B0F"/>
<path d="M746.461 131.269L746.256 112.07L749.856 112.032L750.061 131.231L746.461 131.269ZM751.645 131.214L751.611 128.046L751.635 128.046C752.139 128.04 752.522 127.92 752.783 127.685C753.045 127.451 753.177 127.117 753.18 126.685C753.195 125.829 753.202 124.977 753.201 124.129C753.208 123.281 753.207 122.433 753.198 121.585C753.189 120.737 753.172 119.889 753.147 119.041C753.13 118.185 753.105 117.333 753.072 116.486C753.059 116.062 752.92 115.739 752.654 115.518C752.387 115.289 752.002 115.177 751.498 115.182L751.474 115.183L751.44 112.015L751.464 112.015C753.264 111.995 754.568 112.366 755.376 113.125C756.192 113.876 756.626 115.128 756.676 116.879C756.712 117.991 756.739 119.047 756.758 120.047C756.777 121.047 756.787 122.047 756.79 123.047C756.793 124.047 756.788 125.103 756.776 126.215C756.762 127.975 756.356 129.244 755.556 130.02C754.764 130.797 753.469 131.194 751.669 131.214L751.645 131.214Z" fill="#524B0F"/>
<circle cx="606.748" cy="117.321" r="39.5" transform="rotate(-5.65711 606.748 117.321)" fill="#CEE4CC" stroke="#89A96A"/>
<path d="M537.722 44V8H541.3V44H537.722ZM543.707 44V40.7825H549.67V44H543.707ZM543.707 27.5075V24.29H549.22V27.5075H543.707ZM543.707 11.2175V8H549.67V11.2175H543.707ZM550.725 19.79V17H552.885V9.35H556.485V38.8025C556.485 39.8825 556.68 40.6175 557.07 41.0075C557.475 41.3825 558.278 41.57 559.478 41.57C559.943 41.57 560.333 41.5625 560.648 41.5475C560.978 41.5175 561.353 41.48 561.773 41.435V44.1125C561.413 44.1875 561.038 44.24 560.648 44.27C560.273 44.315 559.868 44.3375 559.433 44.3375C557.018 44.3375 555.323 43.8875 554.348 42.9875C553.373 42.0875 552.885 40.5575 552.885 38.3975V19.79H550.725ZM558.195 19.79V17H561.255V19.79H558.195ZM565.007 44V8H568.652V44H565.007ZM575.267 44L575.222 22.085C575.222 21.125 575.019 20.435 574.614 20.015C574.209 19.595 573.549 19.385 572.634 19.385C572.019 19.385 571.479 19.4825 571.014 19.6775V17.4725C571.374 17.2025 571.794 17 572.274 16.865C572.754 16.73 573.309 16.6625 573.939 16.6625C575.604 16.6625 576.834 17.1125 577.629 18.0125C578.424 18.9125 578.822 20.36 578.822 22.355L578.867 44H575.267ZM583.345 38.465C583.315 37.385 583.285 36.1775 583.255 34.8425C583.24 33.4925 583.232 32.0975 583.232 30.6575C583.232 29.2175 583.24 27.8075 583.255 26.4275C583.27 25.0325 583.3 23.75 583.345 22.58C583.435 20.66 583.915 19.2425 584.785 18.3275C585.655 17.3975 587.027 16.8575 588.902 16.7075V19.565C588.212 19.7 587.717 19.985 587.417 20.42C587.132 20.84 586.982 21.41 586.967 22.13C586.922 23.51 586.892 24.89 586.877 26.27C586.862 27.635 586.855 29.0075 586.855 30.3875C586.855 31.7525 586.862 33.14 586.877 34.55C586.892 35.945 586.922 37.37 586.967 38.825C586.982 39.635 587.147 40.2425 587.462 40.6475C587.777 41.0525 588.257 41.315 588.902 41.435V44.2925C586.982 44.1425 585.595 43.61 584.74 42.695C583.9 41.765 583.435 40.355 583.345 38.465ZM591.31 44.2925V41.435C591.925 41.3 592.367 41.03 592.637 40.625C592.922 40.205 593.08 39.5975 593.11 38.8025C593.14 38.3525 593.155 37.745 593.155 36.98C593.155 36.215 593.132 35.405 593.087 34.55H596.62C596.665 35.06 596.687 35.72 596.687 36.53C596.702 37.34 596.695 37.985 596.665 38.465C596.575 40.355 596.125 41.765 595.315 42.695C594.505 43.625 593.17 44.1575 591.31 44.2925ZM588.97 31.22V28.61H593.132C593.162 27.74 593.177 26.8625 593.177 25.9775C593.177 25.0775 593.17 24.2825 593.155 23.5925C593.155 22.9025 593.14 22.415 593.11 22.13C593.08 21.35 592.915 20.765 592.615 20.375C592.315 19.97 591.88 19.7 591.31 19.565V16.7075C593.155 16.8575 594.49 17.3975 595.315 18.3275C596.14 19.2575 596.59 20.6375 596.665 22.4675C596.68 22.7975 596.695 23.45 596.71 24.425C596.725 25.4 596.725 26.5025 596.71 27.7325C596.71 28.9475 596.68 30.11 596.62 31.22H588.97ZM600.998 44V17H604.665V44H600.998ZM607.05 20.1275V17.3825C607.68 17.0525 608.475 16.8875 609.435 16.8875C609.72 16.8875 609.998 16.9025 610.268 16.9325C610.553 16.9475 610.838 16.9775 611.123 17.0225V19.79H609.48C608.505 19.79 607.695 19.9025 607.05 20.1275ZM613.272 38.465C613.242 37.385 613.212 36.1775 613.182 34.8425C613.167 33.4925 613.159 32.0975 613.159 30.6575C613.159 29.2175 613.167 27.8075 613.182 26.4275C613.197 25.0325 613.227 23.75 613.272 22.58C613.362 20.66 613.842 19.2425 614.712 18.3275C615.582 17.3975 616.954 16.8575 618.829 16.7075V19.565C618.139 19.7 617.644 19.985 617.344 20.42C617.059 20.84 616.909 21.41 616.894 22.13C616.849 23.51 616.819 24.89 616.804 26.27C616.789 27.635 616.782 29.0075 616.782 30.3875C616.782 31.7525 616.789 33.14 616.804 34.55C616.819 35.945 616.849 37.37 616.894 38.825C616.909 39.635 617.074 40.2425 617.389 40.6475C617.704 41.0525 618.184 41.315 618.829 41.435V44.2925C616.909 44.1425 615.522 43.61 614.667 42.695C613.827 41.765 613.362 40.355 613.272 38.465ZM621.237 44.2925V41.435C621.852 41.3 622.294 41.03 622.564 40.625C622.849 40.205 623.007 39.5975 623.037 38.8025C623.067 38.3525 623.082 37.745 623.082 36.98C623.082 36.215 623.059 35.405 623.014 34.55H626.547C626.592 35.06 626.614 35.72 626.614 36.53C626.629 37.34 626.622 37.985 626.592 38.465C626.502 40.355 626.052 41.765 625.242 42.695C624.432 43.625 623.097 44.1575 621.237 44.2925ZM618.897 31.22V28.61H623.059C623.089 27.74 623.104 26.8625 623.104 25.9775C623.104 25.0775 623.097 24.2825 623.082 23.5925C623.082 22.9025 623.067 22.415 623.037 22.13C623.007 21.35 622.842 20.765 622.542 20.375C622.242 19.97 621.807 19.7 621.237 19.565V16.7075C623.082 16.8575 624.417 17.3975 625.242 18.3275C626.067 19.2575 626.517 20.6375 626.592 22.4675C626.607 22.7975 626.622 23.45 626.637 24.425C626.652 25.4 626.652 26.5025 626.637 27.7325C626.637 28.9475 626.607 30.11 626.547 31.22H618.897ZM630.52 38.6V17H634.142L634.165 38.8925C634.165 39.8525 634.36 40.5425 634.75 40.9625C635.155 41.3825 635.807 41.5925 636.707 41.5925C637.322 41.5925 637.862 41.48 638.327 41.255V43.55C637.532 44.075 636.602 44.3375 635.537 44.3375C633.902 44.3375 632.657 43.8875 631.802 42.9875C630.947 42.0875 630.52 40.625 630.52 38.6ZM640.712 44V17H644.335V44H640.712ZM649.338 44V17H652.938V44H649.338ZM668.868 44V22.085C668.868 21.125 668.658 20.435 668.238 20.015C667.833 19.595 667.218 19.385 666.393 19.385C665.898 19.385 665.47 19.4675 665.11 19.6325V17.315C665.47 17.105 665.868 16.9475 666.303 16.8425C666.738 16.7225 667.218 16.6625 667.743 16.6625C669.303 16.6625 670.473 17.105 671.253 17.99C672.048 18.875 672.453 20.33 672.468 22.355V44H668.868ZM659.17 44V22.085C659.155 21.125 658.945 20.435 658.54 20.015C658.15 19.595 657.535 19.385 656.695 19.385C656.44 19.385 656.185 19.4075 655.93 19.4525C655.69 19.4975 655.473 19.565 655.278 19.655V17.405C655.623 17.15 656.013 16.9625 656.448 16.8425C656.898 16.7225 657.415 16.6625 658 16.6625C659.56 16.6625 660.738 17.105 661.533 17.99C662.343 18.875 662.755 20.33 662.77 22.355V44H659.17Z" fill="black"/>
</g>
<defs>
<clipPath id="clip0_269_2795">
<rect width="1181" height="702" fill="white"/>
</clipPath>
</defs>
</svg>
